<svg width="12" height="12" viewBox="0 0 12 12" fill="none" xmlns="http://www.w3.org/2000/svg">
<g clip-path="url(#clip0_123_386)">
<path d="M6.00325 6.29389C5.86169 6.28446 5.7177 6.32906 5.61095 6.43874L1.20845 10.9481C1.01421 11.1472 1.01777 11.4661 1.21639 11.6608C1.41503 11.8556 1.73345 11.8521 1.92819 11.6529L6.01631 7.46552L10.1968 11.5607C10.3954 11.7555 10.7138 11.752 10.9081 11.5528C11.1023 11.3537 11.0987 11.0348 10.9001 10.84L6.39819 6.42994C6.28902 6.32269 6.14461 6.2818 6.00325 6.29389ZM5.54354 0.390987L0.146068 5.91972C-0.0481627 6.11886 -0.0446079 6.43777 0.154014 6.63252C0.352654 6.82728 0.671563 6.82373 0.865305 6.62459L5.9489 1.41779L11.1468 6.51001C11.3454 6.70477 11.6638 6.70122 11.8586 6.50207C12.0529 6.30293 12.0493 5.98402 11.8507 5.78928L6.33132 0.382732C6.22214 0.275464 6.0772 0.234591 5.93587 0.24717C5.79428 0.237218 5.6503 0.281819 5.54354 0.390987Z" fill="black"/>
</g>
<defs>
<clipPath id="clip0_123_386">
<rect width="12" height="12" fill="white"/>
</clipPath>
</defs>
</svg>
