<svg width="124" height="13" viewBox="0 0 124 13" fill="none" xmlns="http://www.w3.org/2000/svg">
<path d="M1.30078 10H0.304688V1.43359H5.08008V2.31836H1.30078V5.45312H4.85156V6.33789H1.30078V10ZM7.27148 3.57812V7.74414C7.27148 8.26758 7.39062 8.6582 7.62891 8.91602C7.86719 9.17383 8.24023 9.30273 8.74805 9.30273C9.41992 9.30273 9.91016 9.11914 10.2188 8.75195C10.5312 8.38477 10.6875 7.78516 10.6875 6.95312V3.57812H11.6602V10H10.8574L10.7168 9.13867H10.6641C10.4648 9.45508 10.1875 9.69727 9.83203 9.86523C9.48047 10.0332 9.07812 10.1172 8.625 10.1172C7.84375 10.1172 7.25781 9.93164 6.86719 9.56055C6.48047 9.18945 6.28711 8.5957 6.28711 7.7793V3.57812H7.27148ZM16.4414 10.1172C15.4922 10.1172 14.7422 9.82812 14.1914 9.25C13.6445 8.67188 13.3711 7.86914 13.3711 6.8418C13.3711 5.80664 13.625 4.98438 14.1328 4.375C14.6445 3.76562 15.3301 3.46094 16.1895 3.46094C16.9941 3.46094 17.6309 3.72656 18.0996 4.25781C18.5684 4.78516 18.8027 5.48242 18.8027 6.34961V6.96484H14.3789C14.3984 7.71875 14.5879 8.29102 14.9473 8.68164C15.3105 9.07227 15.8203 9.26758 16.4766 9.26758C17.168 9.26758 17.8516 9.12305 18.5273 8.83398V9.70117C18.1836 9.84961 17.8574 9.95508 17.5488 10.0176C17.2441 10.084 16.875 10.1172 16.4414 10.1172ZM16.1777 4.27539C15.6621 4.27539 15.25 4.44336 14.9414 4.7793C14.6367 5.11523 14.457 5.58008 14.4023 6.17383H17.7598C17.7598 5.56055 17.623 5.0918 17.3496 4.76758C17.0762 4.43945 16.6855 4.27539 16.1777 4.27539ZM24.8613 10V5.8457C24.8613 5.32227 24.7422 4.93164 24.5039 4.67383C24.2656 4.41602 23.8926 4.28711 23.3848 4.28711C22.7129 4.28711 22.2207 4.46875 21.9082 4.83203C21.5957 5.19531 21.4395 5.79492 21.4395 6.63086V10H20.4668V3.57812H21.2578L21.416 4.45703H21.4629C21.6621 4.14062 21.9414 3.89648 22.3008 3.72461C22.6602 3.54883 23.0605 3.46094 23.502 3.46094C24.2754 3.46094 24.8574 3.64844 25.248 4.02344C25.6387 4.39453 25.834 4.99023 25.834 5.81055V10H24.8613ZM33.0938 3.57812V4.19336L31.9043 4.33398C32.0137 4.4707 32.1113 4.65039 32.1973 4.87305C32.2832 5.0918 32.3262 5.33984 32.3262 5.61719C32.3262 6.24609 32.1113 6.74805 31.6816 7.12305C31.252 7.49805 30.6621 7.68555 29.9121 7.68555C29.7207 7.68555 29.541 7.66992 29.373 7.63867C28.959 7.85742 28.752 8.13281 28.752 8.46484C28.752 8.64062 28.8242 8.77148 28.9688 8.85742C29.1133 8.93945 29.3613 8.98047 29.7129 8.98047H30.8496C31.5449 8.98047 32.0781 9.12695 32.4492 9.41992C32.8242 9.71289 33.0117 10.1387 33.0117 10.6973C33.0117 11.4082 32.7266 11.9492 32.1562 12.3203C31.5859 12.6953 30.7539 12.8828 29.6602 12.8828C28.8203 12.8828 28.1719 12.7266 27.7148 12.4141C27.2617 12.1016 27.0352 11.6602 27.0352 11.0898C27.0352 10.6992 27.1602 10.3613 27.4102 10.0762C27.6602 9.79102 28.0117 9.59766 28.4648 9.49609C28.3008 9.42188 28.1621 9.30664 28.0488 9.15039C27.9395 8.99414 27.8848 8.8125 27.8848 8.60547C27.8848 8.37109 27.9473 8.16602 28.0723 7.99023C28.1973 7.81445 28.3945 7.64453 28.6641 7.48047C28.332 7.34375 28.0605 7.11133 27.8496 6.7832C27.6426 6.45508 27.5391 6.08008 27.5391 5.6582C27.5391 4.95508 27.75 4.41406 28.1719 4.03516C28.5938 3.65234 29.1914 3.46094 29.9648 3.46094C30.3008 3.46094 30.6035 3.5 30.873 3.57812H33.0938ZM27.9727 11.0781C27.9727 11.4258 28.1191 11.6895 28.4121 11.8691C28.7051 12.0488 29.125 12.1387 29.6719 12.1387C30.4883 12.1387 31.0918 12.0156 31.4824 11.7695C31.877 11.5273 32.0742 11.1973 32.0742 10.7793C32.0742 10.4316 31.9668 10.1895 31.752 10.0527C31.5371 9.91992 31.1328 9.85352 30.5391 9.85352H29.373C28.9316 9.85352 28.5879 9.95898 28.3418 10.1699C28.0957 10.3809 27.9727 10.6836 27.9727 11.0781ZM28.5 5.63477C28.5 6.08398 28.627 6.42383 28.8809 6.6543C29.1348 6.88477 29.4883 7 29.9414 7C30.8906 7 31.3652 6.53906 31.3652 5.61719C31.3652 4.65234 30.8848 4.16992 29.9238 4.16992C29.4668 4.16992 29.1152 4.29297 28.8691 4.53906C28.623 4.78516 28.5 5.15039 28.5 5.63477ZM35.3848 10H34.4121V3.57812H35.3848V10ZM34.3301 1.83789C34.3301 1.61523 34.3848 1.45312 34.4941 1.35156C34.6035 1.24609 34.7402 1.19336 34.9043 1.19336C35.0605 1.19336 35.1953 1.24609 35.3086 1.35156C35.4219 1.45703 35.4785 1.61914 35.4785 1.83789C35.4785 2.05664 35.4219 2.2207 35.3086 2.33008C35.1953 2.43555 35.0605 2.48828 34.9043 2.48828C34.7402 2.48828 34.6035 2.43555 34.4941 2.33008C34.3848 2.2207 34.3301 2.05664 34.3301 1.83789ZM40.377 3.46094C40.6621 3.46094 40.918 3.48438 41.1445 3.53125L41.0098 4.43359C40.7441 4.375 40.5098 4.3457 40.3066 4.3457C39.7871 4.3457 39.3418 4.55664 38.9707 4.97852C38.6035 5.40039 38.4199 5.92578 38.4199 6.55469V10H37.4473V3.57812H38.25L38.3613 4.76758H38.4082C38.6465 4.34961 38.9336 4.02734 39.2695 3.80078C39.6055 3.57422 39.9746 3.46094 40.377 3.46094ZM47.8887 6.7832C47.8887 7.83008 47.625 8.64844 47.0977 9.23828C46.5703 9.82422 45.8418 10.1172 44.9121 10.1172C44.3379 10.1172 43.8281 9.98242 43.3828 9.71289C42.9375 9.44336 42.5938 9.05664 42.3516 8.55273C42.1094 8.04883 41.9883 7.45898 41.9883 6.7832C41.9883 5.73633 42.25 4.92188 42.7734 4.33984C43.2969 3.75391 44.0234 3.46094 44.9531 3.46094C45.8516 3.46094 46.5645 3.75977 47.0918 4.35742C47.623 4.95508 47.8887 5.76367 47.8887 6.7832ZM42.9961 6.7832C42.9961 7.60352 43.1602 8.22852 43.4883 8.6582C43.8164 9.08789 44.2988 9.30273 44.9355 9.30273C45.5723 9.30273 46.0547 9.08984 46.3828 8.66406C46.7148 8.23438 46.8809 7.60742 46.8809 6.7832C46.8809 5.9668 46.7148 5.34766 46.3828 4.92578C46.0547 4.5 45.5684 4.28711 44.9238 4.28711C44.2871 4.28711 43.8066 4.49609 43.4824 4.91406C43.1582 5.33203 42.9961 5.95508 42.9961 6.7832ZM50.5723 10H49.5996V0.882812H50.5723V10ZM56.584 10L56.3906 9.08594H56.3438C56.0234 9.48828 55.7031 9.76172 55.3828 9.90625C55.0664 10.0469 54.6699 10.1172 54.1934 10.1172C53.5566 10.1172 53.0566 9.95312 52.6934 9.625C52.334 9.29688 52.1543 8.83008 52.1543 8.22461C52.1543 6.92773 53.1914 6.24805 55.2656 6.18555L56.3555 6.15039V5.75195C56.3555 5.24805 56.2461 4.87695 56.0273 4.63867C55.8125 4.39648 55.4668 4.27539 54.9902 4.27539C54.4551 4.27539 53.8496 4.43945 53.1738 4.76758L52.875 4.02344C53.1914 3.85156 53.5371 3.7168 53.9121 3.61914C54.291 3.52148 54.6699 3.47266 55.0488 3.47266C55.8145 3.47266 56.3809 3.64258 56.748 3.98242C57.1191 4.32227 57.3047 4.86719 57.3047 5.61719V10H56.584ZM54.3867 9.31445C54.9922 9.31445 55.4668 9.14844 55.8105 8.81641C56.1582 8.48438 56.332 8.01953 56.332 7.42188V6.8418L55.3594 6.88281C54.5859 6.91016 54.0273 7.03125 53.6836 7.24609C53.3438 7.45703 53.1738 7.78711 53.1738 8.23633C53.1738 8.58789 53.2793 8.85547 53.4902 9.03906C53.7051 9.22266 54.0039 9.31445 54.3867 9.31445ZM61.8926 7.22852V6.33789H64.7695V7.22852H61.8926ZM70.5586 6.4375V10H69.5625V1.43359H71.9121C72.9629 1.43359 73.7383 1.63477 74.2383 2.03711C74.7422 2.43945 74.9941 3.04492 74.9941 3.85352C74.9941 4.98633 74.4199 5.75195 73.2715 6.15039L75.5977 10H74.4199L72.3457 6.4375H70.5586ZM70.5586 5.58203H71.9238C72.627 5.58203 73.1426 5.44336 73.4707 5.16602C73.7988 4.88477 73.9629 4.46484 73.9629 3.90625C73.9629 3.33984 73.7949 2.93164 73.459 2.68164C73.127 2.43164 72.5918 2.30664 71.8535 2.30664H70.5586V5.58203ZM81.6973 3.44922C81.6973 3.99609 81.543 4.44336 81.2344 4.79102C80.9297 5.13867 80.4961 5.37109 79.9336 5.48828V5.53516C80.6211 5.62109 81.1309 5.83984 81.4629 6.19141C81.7949 6.54297 81.9609 7.00391 81.9609 7.57422C81.9609 8.39062 81.6777 9.01953 81.1113 9.46094C80.5449 9.89844 79.7402 10.1172 78.6973 10.1172C78.2441 10.1172 77.8281 10.082 77.4492 10.0117C77.0742 9.94531 76.709 9.82617 76.3535 9.6543V8.72852C76.7246 8.91211 77.1191 9.05273 77.5371 9.15039C77.959 9.24414 78.3574 9.29102 78.7324 9.29102C80.2129 9.29102 80.9531 8.71094 80.9531 7.55078C80.9531 6.51172 80.1367 5.99219 78.5039 5.99219H77.6602V5.1543H78.5156C79.1836 5.1543 79.7129 5.00781 80.1035 4.71484C80.4941 4.41797 80.6895 4.00781 80.6895 3.48438C80.6895 3.06641 80.5449 2.73828 80.2559 2.5C79.9707 2.26172 79.582 2.14258 79.0898 2.14258C78.7148 2.14258 78.3613 2.19336 78.0293 2.29492C77.6973 2.39648 77.3184 2.58398 76.8926 2.85742L76.4004 2.20117C76.752 1.92383 77.1562 1.70703 77.6133 1.55078C78.0742 1.39062 78.5586 1.31055 79.0664 1.31055C79.8984 1.31055 80.5449 1.50195 81.0059 1.88477C81.4668 2.26367 81.6973 2.78516 81.6973 3.44922ZM88.5645 3.44922C88.5645 3.99609 88.4102 4.44336 88.1016 4.79102C87.7969 5.13867 87.3633 5.37109 86.8008 5.48828V5.53516C87.4883 5.62109 87.998 5.83984 88.3301 6.19141C88.6621 6.54297 88.8281 7.00391 88.8281 7.57422C88.8281 8.39062 88.5449 9.01953 87.9785 9.46094C87.4121 9.89844 86.6074 10.1172 85.5645 10.1172C85.1113 10.1172 84.6953 10.082 84.3164 10.0117C83.9414 9.94531 83.5762 9.82617 83.2207 9.6543V8.72852C83.5918 8.91211 83.9863 9.05273 84.4043 9.15039C84.8262 9.24414 85.2246 9.29102 85.5996 9.29102C87.0801 9.29102 87.8203 8.71094 87.8203 7.55078C87.8203 6.51172 87.0039 5.99219 85.3711 5.99219H84.5273V5.1543H85.3828C86.0508 5.1543 86.5801 5.00781 86.9707 4.71484C87.3613 4.41797 87.5566 4.00781 87.5566 3.48438C87.5566 3.06641 87.4121 2.73828 87.123 2.5C86.8379 2.26172 86.4492 2.14258 85.957 2.14258C85.582 2.14258 85.2285 2.19336 84.8965 2.29492C84.5645 2.39648 84.1855 2.58398 83.7598 2.85742L83.2676 2.20117C83.6191 1.92383 84.0234 1.70703 84.4805 1.55078C84.9414 1.39062 85.4258 1.31055 85.9336 1.31055C86.7656 1.31055 87.4121 1.50195 87.873 1.88477C88.334 2.26367 88.5645 2.78516 88.5645 3.44922ZM95.8008 5.70508C95.8008 7.18555 95.5664 8.29102 95.0977 9.02148C94.6328 9.75195 93.9199 10.1172 92.959 10.1172C92.0371 10.1172 91.3359 9.74414 90.8555 8.99805C90.375 8.24805 90.1348 7.15039 90.1348 5.70508C90.1348 4.21289 90.3672 3.10547 90.832 2.38281C91.2969 1.66016 92.0059 1.29883 92.959 1.29883C93.8887 1.29883 94.5938 1.67578 95.0742 2.42969C95.5586 3.18359 95.8008 4.27539 95.8008 5.70508ZM91.1191 5.70508C91.1191 6.95117 91.2656 7.85938 91.5586 8.42969C91.8516 8.99609 92.3184 9.2793 92.959 9.2793C93.6074 9.2793 94.0762 8.99219 94.3652 8.41797C94.6582 7.83984 94.8047 6.93555 94.8047 5.70508C94.8047 4.47461 94.6582 3.57422 94.3652 3.00391C94.0762 2.42969 93.6074 2.14258 92.959 2.14258C92.3184 2.14258 91.8516 2.42578 91.5586 2.99219C91.2656 3.55469 91.1191 4.45898 91.1191 5.70508ZM103.025 8.03125H101.754V10H100.822V8.03125H96.6562V7.18164L100.723 1.38672H101.754V7.14648H103.025V8.03125ZM100.822 7.14648V4.29883C100.822 3.74023 100.842 3.10938 100.881 2.40625H100.834C100.646 2.78125 100.471 3.0918 100.307 3.33789L97.6289 7.14648H100.822ZM103.957 6.33789C103.957 4.6543 104.283 3.39648 104.936 2.56445C105.592 1.72852 106.561 1.31055 107.842 1.31055C108.283 1.31055 108.631 1.34766 108.885 1.42188V2.25977C108.584 2.16211 108.24 2.11328 107.854 2.11328C106.936 2.11328 106.234 2.40039 105.75 2.97461C105.266 3.54492 105 4.44336 104.953 5.66992H105.023C105.453 4.99805 106.133 4.66211 107.062 4.66211C107.832 4.66211 108.438 4.89453 108.879 5.35938C109.324 5.82422 109.547 6.45508 109.547 7.25195C109.547 8.14258 109.303 8.84375 108.814 9.35547C108.33 9.86328 107.674 10.1172 106.846 10.1172C105.959 10.1172 105.256 9.78516 104.736 9.12109C104.217 8.45312 103.957 7.52539 103.957 6.33789ZM106.834 9.29102C107.389 9.29102 107.818 9.11719 108.123 8.76953C108.432 8.41797 108.586 7.91211 108.586 7.25195C108.586 6.68555 108.443 6.24023 108.158 5.91602C107.873 5.5918 107.447 5.42969 106.881 5.42969C106.529 5.42969 106.207 5.50195 105.914 5.64648C105.621 5.79102 105.387 5.99023 105.211 6.24414C105.039 6.49805 104.953 6.76172 104.953 7.03516C104.953 7.4375 105.031 7.8125 105.188 8.16016C105.344 8.50781 105.564 8.7832 105.85 8.98633C106.139 9.18945 106.467 9.29102 106.834 9.29102ZM116.355 5.08984C116.355 8.44141 115.059 10.1172 112.465 10.1172C112.012 10.1172 111.652 10.0781 111.387 10V9.16211C111.699 9.26367 112.055 9.31445 112.453 9.31445C113.391 9.31445 114.098 9.02539 114.574 8.44727C115.055 7.86523 115.316 6.97461 115.359 5.77539H115.289C115.074 6.09961 114.789 6.34766 114.434 6.51953C114.078 6.6875 113.678 6.77148 113.232 6.77148C112.475 6.77148 111.873 6.54492 111.428 6.0918C110.982 5.63867 110.76 5.00586 110.76 4.19336C110.76 3.30273 111.008 2.59961 111.504 2.08398C112.004 1.56836 112.66 1.31055 113.473 1.31055C114.055 1.31055 114.562 1.46094 114.996 1.76172C115.434 2.05859 115.77 2.49414 116.004 3.06836C116.238 3.63867 116.355 4.3125 116.355 5.08984ZM113.473 2.14258C112.914 2.14258 112.482 2.32227 112.178 2.68164C111.873 3.04102 111.721 3.54102 111.721 4.18164C111.721 4.74414 111.861 5.1875 112.143 5.51172C112.424 5.83203 112.852 5.99219 113.426 5.99219C113.781 5.99219 114.107 5.91992 114.404 5.77539C114.705 5.63086 114.941 5.43359 115.113 5.18359C115.285 4.93359 115.371 4.67188 115.371 4.39844C115.371 3.98828 115.291 3.60938 115.131 3.26172C114.971 2.91406 114.746 2.64062 114.457 2.44141C114.172 2.24219 113.844 2.14258 113.473 2.14258ZM122.9 3.44922C122.9 3.99609 122.746 4.44336 122.438 4.79102C122.133 5.13867 121.699 5.37109 121.137 5.48828V5.53516C121.824 5.62109 122.334 5.83984 122.666 6.19141C122.998 6.54297 123.164 7.00391 123.164 7.57422C123.164 8.39062 122.881 9.01953 122.314 9.46094C121.748 9.89844 120.943 10.1172 119.9 10.1172C119.447 10.1172 119.031 10.082 118.652 10.0117C118.277 9.94531 117.912 9.82617 117.557 9.6543V8.72852C117.928 8.91211 118.322 9.05273 118.74 9.15039C119.162 9.24414 119.561 9.29102 119.936 9.29102C121.416 9.29102 122.156 8.71094 122.156 7.55078C122.156 6.51172 121.34 5.99219 119.707 5.99219H118.863V5.1543H119.719C120.387 5.1543 120.916 5.00781 121.307 4.71484C121.697 4.41797 121.893 4.00781 121.893 3.48438C121.893 3.06641 121.748 2.73828 121.459 2.5C121.174 2.26172 120.785 2.14258 120.293 2.14258C119.918 2.14258 119.564 2.19336 119.232 2.29492C118.9 2.39648 118.521 2.58398 118.096 2.85742L117.604 2.20117C117.955 1.92383 118.359 1.70703 118.816 1.55078C119.277 1.39062 119.762 1.31055 120.27 1.31055C121.102 1.31055 121.748 1.50195 122.209 1.88477C122.67 2.26367 122.9 2.78516 122.9 3.44922Z" fill="#606060"/>
</svg>
