<svg width="318" height="15" viewBox="0 0 318 15" fill="none" xmlns="http://www.w3.org/2000/svg">
<path d="M0.570312 12V0.578125H1.89844V10.7969H6.9375V12H0.570312ZM16.0625 12L14.6406 8.36719H10.0625L8.65625 12H7.3125L11.8281 0.53125H12.9453L17.4375 12H16.0625ZM14.2266 7.17188L12.8984 3.63281C12.7266 3.1849 12.5495 2.63542 12.3672 1.98438C12.2526 2.48438 12.0885 3.03385 11.875 3.63281L10.5312 7.17188H14.2266ZM27.9297 12H26.4141L20.1719 2.41406H20.1094C20.1927 3.53906 20.2344 4.57031 20.2344 5.50781V12H19.0078V0.578125H20.5078L26.7344 10.125H26.7969C26.7865 9.98438 26.763 9.53385 26.7266 8.77344C26.6901 8.00781 26.6771 7.46094 26.6875 7.13281V0.578125H27.9297V12ZM36.0938 6.01562H39.9766V11.5703C39.3724 11.763 38.7578 11.9089 38.1328 12.0078C37.5078 12.1068 36.7839 12.1562 35.9609 12.1562C34.2318 12.1562 32.8854 11.6432 31.9219 10.6172C30.9583 9.58594 30.4766 8.14323 30.4766 6.28906C30.4766 5.10156 30.7135 4.0625 31.1875 3.17188C31.6667 2.27604 32.3542 1.59375 33.25 1.125C34.1458 0.651042 35.1953 0.414062 36.3984 0.414062C37.6172 0.414062 38.7526 0.638021 39.8047 1.08594L39.2891 2.25781C38.2578 1.82031 37.2656 1.60156 36.3125 1.60156C34.9219 1.60156 33.8359 2.01562 33.0547 2.84375C32.2734 3.67188 31.8828 4.82031 31.8828 6.28906C31.8828 7.83073 32.2578 9 33.0078 9.79688C33.763 10.5938 34.8698 10.9922 36.3281 10.9922C37.1198 10.9922 37.8932 10.901 38.6484 10.7188V7.20312H36.0938V6.01562ZM51.3516 0.578125V7.96875C51.3516 9.27083 50.9583 10.2943 50.1719 11.0391C49.3854 11.7839 48.3047 12.1562 46.9297 12.1562C45.5547 12.1562 44.4896 11.7812 43.7344 11.0312C42.9844 10.2812 42.6094 9.25 42.6094 7.9375V0.578125H43.9375V8.03125C43.9375 8.98438 44.1979 9.71615 44.7188 10.2266C45.2396 10.737 46.0052 10.9922 47.0156 10.9922C47.9792 10.9922 48.7214 10.737 49.2422 10.2266C49.763 9.71094 50.0234 8.97396 50.0234 8.01562V0.578125H51.3516ZM61.5625 12L60.1406 8.36719H55.5625L54.1562 12H52.8125L57.3281 0.53125H58.4453L62.9375 12H61.5625ZM59.7266 7.17188L58.3984 3.63281C58.2266 3.1849 58.0495 2.63542 57.8672 1.98438C57.7526 2.48438 57.5885 3.03385 57.375 3.63281L56.0312 7.17188H59.7266ZM69.5312 6.01562H73.4141V11.5703C72.8099 11.763 72.1953 11.9089 71.5703 12.0078C70.9453 12.1068 70.2214 12.1562 69.3984 12.1562C67.6693 12.1562 66.3229 11.6432 65.3594 10.6172C64.3958 9.58594 63.9141 8.14323 63.9141 6.28906C63.9141 5.10156 64.151 4.0625 64.625 3.17188C65.1042 2.27604 65.7917 1.59375 66.6875 1.125C67.5833 0.651042 68.6328 0.414062 69.8359 0.414062C71.0547 0.414062 72.1901 0.638021 73.2422 1.08594L72.7266 2.25781C71.6953 1.82031 70.7031 1.60156 69.75 1.60156C68.3594 1.60156 67.2734 2.01562 66.4922 2.84375C65.7109 3.67188 65.3203 4.82031 65.3203 6.28906C65.3203 7.83073 65.6953 9 66.4453 9.79688C67.2005 10.5938 68.3073 10.9922 69.7656 10.9922C70.5573 10.9922 71.3307 10.901 72.0859 10.7188V7.20312H69.5312V6.01562ZM82.5312 12H76.1641V0.578125H82.5312V1.75781H77.4922V5.4375H82.2266V6.60938H77.4922V10.8125H82.5312V12ZM91.5156 8.96094C91.5156 9.96615 91.151 10.75 90.4219 11.3125C89.6927 11.875 88.7031 12.1562 87.4531 12.1562C86.099 12.1562 85.0573 11.9818 84.3281 11.6328V10.3516C84.7969 10.5495 85.3073 10.7057 85.8594 10.8203C86.4115 10.9349 86.9583 10.9922 87.5 10.9922C88.3854 10.9922 89.0521 10.8255 89.5 10.4922C89.9479 10.1536 90.1719 9.6849 90.1719 9.08594C90.1719 8.6901 90.0911 8.36719 89.9297 8.11719C89.7734 7.86198 89.5078 7.6276 89.1328 7.41406C88.763 7.20052 88.1979 6.95833 87.4375 6.6875C86.375 6.30729 85.6146 5.85677 85.1562 5.33594C84.7031 4.8151 84.4766 4.13542 84.4766 3.29688C84.4766 2.41667 84.8073 1.71615 85.4688 1.19531C86.1302 0.674479 87.0052 0.414062 88.0938 0.414062C89.2292 0.414062 90.2734 0.622396 91.2266 1.03906L90.8125 2.19531C89.8698 1.79948 88.9531 1.60156 88.0625 1.60156C87.3594 1.60156 86.8099 1.7526 86.4141 2.05469C86.0182 2.35677 85.8203 2.77604 85.8203 3.3125C85.8203 3.70833 85.8932 4.03385 86.0391 4.28906C86.1849 4.53906 86.4297 4.77083 86.7734 4.98438C87.1224 5.19271 87.6536 5.42448 88.3672 5.67969C89.5651 6.10677 90.388 6.5651 90.8359 7.05469C91.2891 7.54427 91.5156 8.17969 91.5156 8.96094ZM93.4688 11.1719C93.4688 10.8229 93.5469 10.5599 93.7031 10.3828C93.8646 10.2005 94.0938 10.1094 94.3906 10.1094C94.6927 10.1094 94.9271 10.2005 95.0938 10.3828C95.2656 10.5599 95.3516 10.8229 95.3516 11.1719C95.3516 11.5104 95.2656 11.7708 95.0938 11.9531C94.9219 12.1354 94.6875 12.2266 94.3906 12.2266C94.125 12.2266 93.9036 12.1458 93.7266 11.9844C93.5547 11.8177 93.4688 11.5469 93.4688 11.1719ZM93.4688 4.27344C93.4688 3.57031 93.776 3.21875 94.3906 3.21875C95.0312 3.21875 95.3516 3.57031 95.3516 4.27344C95.3516 4.61198 95.2656 4.8724 95.0938 5.05469C94.9219 5.23698 94.6875 5.32812 94.3906 5.32812C94.125 5.32812 93.9036 5.2474 93.7266 5.08594C93.5547 4.91927 93.4688 4.64844 93.4688 4.27344ZM103.602 7.25V12H102.273V0.578125H105.406C106.807 0.578125 107.841 0.846354 108.508 1.38281C109.18 1.91927 109.516 2.72656 109.516 3.80469C109.516 5.3151 108.75 6.33594 107.219 6.86719L110.32 12H108.75L105.984 7.25H103.602ZM103.602 6.10938H105.422C106.359 6.10938 107.047 5.92448 107.484 5.55469C107.922 5.17969 108.141 4.61979 108.141 3.875C108.141 3.11979 107.917 2.57552 107.469 2.24219C107.026 1.90885 106.312 1.74219 105.328 1.74219H103.602V6.10938ZM120.789 0.578125V7.96875C120.789 9.27083 120.396 10.2943 119.609 11.0391C118.823 11.7839 117.742 12.1562 116.367 12.1562C114.992 12.1562 113.927 11.7812 113.172 11.0312C112.422 10.2812 112.047 9.25 112.047 7.9375V0.578125H113.375V8.03125C113.375 8.98438 113.635 9.71615 114.156 10.2266C114.677 10.737 115.443 10.9922 116.453 10.9922C117.417 10.9922 118.159 10.737 118.68 10.2266C119.201 9.71094 119.461 8.97396 119.461 8.01562V0.578125H120.789ZM130.266 8.96094C130.266 9.96615 129.901 10.75 129.172 11.3125C128.443 11.875 127.453 12.1562 126.203 12.1562C124.849 12.1562 123.807 11.9818 123.078 11.6328V10.3516C123.547 10.5495 124.057 10.7057 124.609 10.8203C125.161 10.9349 125.708 10.9922 126.25 10.9922C127.135 10.9922 127.802 10.8255 128.25 10.4922C128.698 10.1536 128.922 9.6849 128.922 9.08594C128.922 8.6901 128.841 8.36719 128.68 8.11719C128.523 7.86198 128.258 7.6276 127.883 7.41406C127.513 7.20052 126.948 6.95833 126.188 6.6875C125.125 6.30729 124.365 5.85677 123.906 5.33594C123.453 4.8151 123.227 4.13542 123.227 3.29688C123.227 2.41667 123.557 1.71615 124.219 1.19531C124.88 0.674479 125.755 0.414062 126.844 0.414062C127.979 0.414062 129.023 0.622396 129.977 1.03906L129.562 2.19531C128.62 1.79948 127.703 1.60156 126.812 1.60156C126.109 1.60156 125.56 1.7526 125.164 2.05469C124.768 2.35677 124.57 2.77604 124.57 3.3125C124.57 3.70833 124.643 4.03385 124.789 4.28906C124.935 4.53906 125.18 4.77083 125.523 4.98438C125.872 5.19271 126.404 5.42448 127.117 5.67969C128.315 6.10677 129.138 6.5651 129.586 7.05469C130.039 7.54427 130.266 8.17969 130.266 8.96094ZM139.047 8.96094C139.047 9.96615 138.682 10.75 137.953 11.3125C137.224 11.875 136.234 12.1562 134.984 12.1562C133.63 12.1562 132.589 11.9818 131.859 11.6328V10.3516C132.328 10.5495 132.839 10.7057 133.391 10.8203C133.943 10.9349 134.49 10.9922 135.031 10.9922C135.917 10.9922 136.583 10.8255 137.031 10.4922C137.479 10.1536 137.703 9.6849 137.703 9.08594C137.703 8.6901 137.622 8.36719 137.461 8.11719C137.305 7.86198 137.039 7.6276 136.664 7.41406C136.294 7.20052 135.729 6.95833 134.969 6.6875C133.906 6.30729 133.146 5.85677 132.688 5.33594C132.234 4.8151 132.008 4.13542 132.008 3.29688C132.008 2.41667 132.339 1.71615 133 1.19531C133.661 0.674479 134.536 0.414062 135.625 0.414062C136.76 0.414062 137.805 0.622396 138.758 1.03906L138.344 2.19531C137.401 1.79948 136.484 1.60156 135.594 1.60156C134.891 1.60156 134.341 1.7526 133.945 2.05469C133.549 2.35677 133.352 2.77604 133.352 3.3125C133.352 3.70833 133.424 4.03385 133.57 4.28906C133.716 4.53906 133.961 4.77083 134.305 4.98438C134.654 5.19271 135.185 5.42448 135.898 5.67969C137.096 6.10677 137.919 6.5651 138.367 7.05469C138.82 7.54427 139.047 8.17969 139.047 8.96094ZM141.383 12V0.578125H142.711V12H141.383ZM153.031 12L151.609 8.36719H147.031L145.625 12H144.281L148.797 0.53125H149.914L154.406 12H153.031ZM151.195 7.17188L149.867 3.63281C149.695 3.1849 149.518 2.63542 149.336 1.98438C149.221 2.48438 149.057 3.03385 148.844 3.63281L147.5 7.17188H151.195ZM164.898 12H163.383L157.141 2.41406H157.078C157.161 3.53906 157.203 4.57031 157.203 5.50781V12H155.977V0.578125H157.477L163.703 10.125H163.766C163.755 9.98438 163.732 9.53385 163.695 8.77344C163.659 8.00781 163.646 7.46094 163.656 7.13281V0.578125H164.898V12ZM169.203 10.1406L169.32 10.3203C169.185 10.8411 168.99 11.4453 168.734 12.1328C168.479 12.8255 168.214 13.4688 167.938 14.0625H166.961C167.102 13.5208 167.255 12.8516 167.422 12.0547C167.594 11.2578 167.714 10.6198 167.781 10.1406H169.203ZM182.484 12H176.117V0.578125H182.484V1.75781H177.445V5.4375H182.18V6.60938H177.445V10.8125H182.484V12ZM193.945 12H192.43L186.188 2.41406H186.125C186.208 3.53906 186.25 4.57031 186.25 5.50781V12H185.023V0.578125H186.523L192.75 10.125H192.812C192.802 9.98438 192.779 9.53385 192.742 8.77344C192.706 8.00781 192.693 7.46094 192.703 7.13281V0.578125H193.945V12ZM202.109 6.01562H205.992V11.5703C205.388 11.763 204.773 11.9089 204.148 12.0078C203.523 12.1068 202.799 12.1562 201.977 12.1562C200.247 12.1562 198.901 11.6432 197.938 10.6172C196.974 9.58594 196.492 8.14323 196.492 6.28906C196.492 5.10156 196.729 4.0625 197.203 3.17188C197.682 2.27604 198.37 1.59375 199.266 1.125C200.161 0.651042 201.211 0.414062 202.414 0.414062C203.633 0.414062 204.768 0.638021 205.82 1.08594L205.305 2.25781C204.273 1.82031 203.281 1.60156 202.328 1.60156C200.938 1.60156 199.852 2.01562 199.07 2.84375C198.289 3.67188 197.898 4.82031 197.898 6.28906C197.898 7.83073 198.273 9 199.023 9.79688C199.779 10.5938 200.885 10.9922 202.344 10.9922C203.135 10.9922 203.909 10.901 204.664 10.7188V7.20312H202.109V6.01562ZM208.742 12V0.578125H210.07V10.7969H215.109V12H208.742ZM217.055 12V0.578125H218.383V12H217.055ZM227.969 8.96094C227.969 9.96615 227.604 10.75 226.875 11.3125C226.146 11.875 225.156 12.1562 223.906 12.1562C222.552 12.1562 221.51 11.9818 220.781 11.6328V10.3516C221.25 10.5495 221.76 10.7057 222.312 10.8203C222.865 10.9349 223.411 10.9922 223.953 10.9922C224.839 10.9922 225.505 10.8255 225.953 10.4922C226.401 10.1536 226.625 9.6849 226.625 9.08594C226.625 8.6901 226.544 8.36719 226.383 8.11719C226.227 7.86198 225.961 7.6276 225.586 7.41406C225.216 7.20052 224.651 6.95833 223.891 6.6875C222.828 6.30729 222.068 5.85677 221.609 5.33594C221.156 4.8151 220.93 4.13542 220.93 3.29688C220.93 2.41667 221.26 1.71615 221.922 1.19531C222.583 0.674479 223.458 0.414062 224.547 0.414062C225.682 0.414062 226.727 0.622396 227.68 1.03906L227.266 2.19531C226.323 1.79948 225.406 1.60156 224.516 1.60156C223.812 1.60156 223.263 1.7526 222.867 2.05469C222.471 2.35677 222.273 2.77604 222.273 3.3125C222.273 3.70833 222.346 4.03385 222.492 4.28906C222.638 4.53906 222.883 4.77083 223.227 4.98438C223.576 5.19271 224.107 5.42448 224.82 5.67969C226.018 6.10677 226.841 6.5651 227.289 7.05469C227.742 7.54427 227.969 8.17969 227.969 8.96094ZM238.977 12H237.648V6.625H231.633V12H230.305V0.578125H231.633V5.4375H237.648V0.578125H238.977V12ZM243.281 10.1406L243.398 10.3203C243.263 10.8411 243.068 11.4453 242.812 12.1328C242.557 12.8255 242.292 13.4688 242.016 14.0625H241.039C241.18 13.5208 241.333 12.8516 241.5 12.0547C241.672 11.2578 241.792 10.6198 241.859 10.1406H243.281ZM256.641 8.96094C256.641 9.96615 256.276 10.75 255.547 11.3125C254.818 11.875 253.828 12.1562 252.578 12.1562C251.224 12.1562 250.182 11.9818 249.453 11.6328V10.3516C249.922 10.5495 250.432 10.7057 250.984 10.8203C251.536 10.9349 252.083 10.9922 252.625 10.9922C253.51 10.9922 254.177 10.8255 254.625 10.4922C255.073 10.1536 255.297 9.6849 255.297 9.08594C255.297 8.6901 255.216 8.36719 255.055 8.11719C254.898 7.86198 254.633 7.6276 254.258 7.41406C253.888 7.20052 253.323 6.95833 252.562 6.6875C251.5 6.30729 250.74 5.85677 250.281 5.33594C249.828 4.8151 249.602 4.13542 249.602 3.29688C249.602 2.41667 249.932 1.71615 250.594 1.19531C251.255 0.674479 252.13 0.414062 253.219 0.414062C254.354 0.414062 255.398 0.622396 256.352 1.03906L255.938 2.19531C254.995 1.79948 254.078 1.60156 253.188 1.60156C252.484 1.60156 251.935 1.7526 251.539 2.05469C251.143 2.35677 250.945 2.77604 250.945 3.3125C250.945 3.70833 251.018 4.03385 251.164 4.28906C251.31 4.53906 251.555 4.77083 251.898 4.98438C252.247 5.19271 252.779 5.42448 253.492 5.67969C254.69 6.10677 255.513 6.5651 255.961 7.05469C256.414 7.54427 256.641 8.17969 256.641 8.96094ZM266.219 3.90625C266.219 5.0625 265.823 5.95312 265.031 6.57812C264.245 7.19792 263.117 7.50781 261.648 7.50781H260.305V12H258.977V0.578125H261.938C264.792 0.578125 266.219 1.6875 266.219 3.90625ZM260.305 6.36719H261.5C262.677 6.36719 263.529 6.17708 264.055 5.79688C264.581 5.41667 264.844 4.80729 264.844 3.96875C264.844 3.21354 264.596 2.65104 264.102 2.28125C263.607 1.91146 262.836 1.72656 261.789 1.72656H260.305V6.36719ZM275.797 12L274.375 8.36719H269.797L268.391 12H267.047L271.562 0.53125H272.68L277.172 12H275.797ZM273.961 7.17188L272.633 3.63281C272.461 3.1849 272.284 2.63542 272.102 1.98438C271.987 2.48438 271.823 3.03385 271.609 3.63281L270.266 7.17188H273.961ZM287.664 12H286.148L279.906 2.41406H279.844C279.927 3.53906 279.969 4.57031 279.969 5.50781V12H278.742V0.578125H280.242L286.469 10.125H286.531C286.521 9.98438 286.497 9.53385 286.461 8.77344C286.424 8.00781 286.411 7.46094 286.422 7.13281V0.578125H287.664V12ZM290.805 12V0.578125H292.133V12H290.805ZM301.719 8.96094C301.719 9.96615 301.354 10.75 300.625 11.3125C299.896 11.875 298.906 12.1562 297.656 12.1562C296.302 12.1562 295.26 11.9818 294.531 11.6328V10.3516C295 10.5495 295.51 10.7057 296.062 10.8203C296.615 10.9349 297.161 10.9922 297.703 10.9922C298.589 10.9922 299.255 10.8255 299.703 10.4922C300.151 10.1536 300.375 9.6849 300.375 9.08594C300.375 8.6901 300.294 8.36719 300.133 8.11719C299.977 7.86198 299.711 7.6276 299.336 7.41406C298.966 7.20052 298.401 6.95833 297.641 6.6875C296.578 6.30729 295.818 5.85677 295.359 5.33594C294.906 4.8151 294.68 4.13542 294.68 3.29688C294.68 2.41667 295.01 1.71615 295.672 1.19531C296.333 0.674479 297.208 0.414062 298.297 0.414062C299.432 0.414062 300.477 0.622396 301.43 1.03906L301.016 2.19531C300.073 1.79948 299.156 1.60156 298.266 1.60156C297.562 1.60156 297.013 1.7526 296.617 2.05469C296.221 2.35677 296.023 2.77604 296.023 3.3125C296.023 3.70833 296.096 4.03385 296.242 4.28906C296.388 4.53906 296.633 4.77083 296.977 4.98438C297.326 5.19271 297.857 5.42448 298.57 5.67969C299.768 6.10677 300.591 6.5651 301.039 7.05469C301.492 7.54427 301.719 8.17969 301.719 8.96094ZM312.727 12H311.398V6.625H305.383V12H304.055V0.578125H305.383V5.4375H311.398V0.578125H312.727V12ZM315.484 11.1719C315.484 10.8229 315.562 10.5599 315.719 10.3828C315.88 10.2005 316.109 10.1094 316.406 10.1094C316.708 10.1094 316.943 10.2005 317.109 10.3828C317.281 10.5599 317.367 10.8229 317.367 11.1719C317.367 11.5104 317.281 11.7708 317.109 11.9531C316.938 12.1354 316.703 12.2266 316.406 12.2266C316.141 12.2266 315.919 12.1458 315.742 11.9844C315.57 11.8177 315.484 11.5469 315.484 11.1719Z" fill="#808080"/>
</svg>
