<svg width="528" height="49" viewBox="0 0 528 49" fill="none" xmlns="http://www.w3.org/2000/svg">
<path d="M8.10938 13V1.57812H9.4375V11.7969H14.4766V13H8.10938ZM23.6172 8.71094C23.6172 10.1068 23.2656 11.1979 22.5625 11.9844C21.8594 12.7656 20.888 13.1562 19.6484 13.1562C18.8828 13.1562 18.2031 12.9766 17.6094 12.6172C17.0156 12.2578 16.5573 11.7422 16.2344 11.0703C15.9115 10.3984 15.75 9.61198 15.75 8.71094C15.75 7.3151 16.099 6.22917 16.7969 5.45312C17.4948 4.67188 18.4635 4.28125 19.7031 4.28125C20.901 4.28125 21.8516 4.67969 22.5547 5.47656C23.263 6.27344 23.6172 7.35156 23.6172 8.71094ZM17.0938 8.71094C17.0938 9.80469 17.3125 10.638 17.75 11.2109C18.1875 11.7839 18.8307 12.0703 19.6797 12.0703C20.5286 12.0703 21.1719 11.7865 21.6094 11.2188C22.0521 10.6458 22.2734 9.8099 22.2734 8.71094C22.2734 7.6224 22.0521 6.79688 21.6094 6.23438C21.1719 5.66667 20.5234 5.38281 19.6641 5.38281C18.8151 5.38281 18.1745 5.66146 17.7422 6.21875C17.3099 6.77604 17.0938 7.60677 17.0938 8.71094ZM29.8047 4.28125C30.1849 4.28125 30.526 4.3125 30.8281 4.375L30.6484 5.57812C30.2943 5.5 29.9818 5.46094 29.7109 5.46094C29.0182 5.46094 28.4245 5.74219 27.9297 6.30469C27.4401 6.86719 27.1953 7.56771 27.1953 8.40625V13H25.8984V4.4375H26.9688L27.1172 6.02344H27.1797C27.4974 5.46615 27.8802 5.03646 28.3281 4.73438C28.776 4.43229 29.2682 4.28125 29.8047 4.28125ZM36.0469 13.1562C34.7812 13.1562 33.7812 12.7708 33.0469 12C32.3177 11.2292 31.9531 10.1589 31.9531 8.78906C31.9531 7.40885 32.2917 6.3125 32.9688 5.5C33.651 4.6875 34.5651 4.28125 35.7109 4.28125C36.7839 4.28125 37.6328 4.63542 38.2578 5.34375C38.8828 6.04688 39.1953 6.97656 39.1953 8.13281V8.95312H33.2969C33.3229 9.95833 33.5755 10.7214 34.0547 11.2422C34.5391 11.763 35.2188 12.0234 36.0938 12.0234C37.0156 12.0234 37.9271 11.8307 38.8281 11.4453V12.6016C38.3698 12.7995 37.9349 12.9401 37.5234 13.0234C37.1172 13.112 36.625 13.1562 36.0469 13.1562ZM35.6953 5.36719C35.0078 5.36719 34.4583 5.59115 34.0469 6.03906C33.6406 6.48698 33.401 7.10677 33.3281 7.89844H37.8047C37.8047 7.08073 37.6224 6.45573 37.2578 6.02344C36.8932 5.58594 36.3724 5.36719 35.6953 5.36719ZM52.3281 13V7.42969C52.3281 6.7474 52.1823 6.23698 51.8906 5.89844C51.599 5.55469 51.1458 5.38281 50.5312 5.38281C49.724 5.38281 49.1276 5.61458 48.7422 6.07812C48.3568 6.54167 48.1641 7.25521 48.1641 8.21875V13H46.8672V7.42969C46.8672 6.7474 46.7214 6.23698 46.4297 5.89844C46.138 5.55469 45.6823 5.38281 45.0625 5.38281C44.25 5.38281 43.6536 5.6276 43.2734 6.11719C42.8984 6.60156 42.7109 7.39844 42.7109 8.50781V13H41.4141V4.4375H42.4688L42.6797 5.60938H42.7422C42.987 5.19271 43.3307 4.86719 43.7734 4.63281C44.2214 4.39844 44.7214 4.28125 45.2734 4.28125C46.612 4.28125 47.487 4.76562 47.8984 5.73438H47.9609C48.2161 5.28646 48.5859 4.93229 49.0703 4.67188C49.5547 4.41146 50.1068 4.28125 50.7266 4.28125C51.6953 4.28125 52.4193 4.53125 52.8984 5.03125C53.3828 5.52604 53.625 6.32031 53.625 7.41406V13H52.3281ZM61.7578 13H60.4609V4.4375H61.7578V13ZM60.3516 2.11719C60.3516 1.82031 60.4245 1.60417 60.5703 1.46875C60.7161 1.32812 60.8984 1.25781 61.1172 1.25781C61.3255 1.25781 61.5052 1.32812 61.6562 1.46875C61.8073 1.60938 61.8828 1.82552 61.8828 2.11719C61.8828 2.40885 61.8073 2.6276 61.6562 2.77344C61.5052 2.91406 61.3255 2.98438 61.1172 2.98438C60.8984 2.98438 60.7161 2.91406 60.5703 2.77344C60.4245 2.6276 60.3516 2.40885 60.3516 2.11719ZM68.4922 13.1562C67.9349 13.1562 67.4245 13.0547 66.9609 12.8516C66.5026 12.6432 66.1172 12.3255 65.8047 11.8984H65.7109C65.7734 12.3984 65.8047 12.8724 65.8047 13.3203V16.8438H64.5078V4.4375H65.5625L65.7422 5.60938H65.8047C66.138 5.14062 66.526 4.80208 66.9688 4.59375C67.4115 4.38542 67.9193 4.28125 68.4922 4.28125C69.6276 4.28125 70.5026 4.66927 71.1172 5.44531C71.737 6.22135 72.0469 7.3099 72.0469 8.71094C72.0469 10.1172 71.7318 11.2109 71.1016 11.9922C70.4766 12.7682 69.6068 13.1562 68.4922 13.1562ZM68.3047 5.38281C67.4297 5.38281 66.7969 5.625 66.4062 6.10938C66.0156 6.59375 65.8151 7.36458 65.8047 8.42188V8.71094C65.8047 9.91406 66.0052 10.776 66.4062 11.2969C66.8073 11.8125 67.4505 12.0703 68.3359 12.0703C69.0755 12.0703 69.6536 11.7708 70.0703 11.1719C70.4922 10.5729 70.7031 9.7474 70.7031 8.69531C70.7031 7.6276 70.4922 6.8099 70.0703 6.24219C69.6536 5.66927 69.0651 5.38281 68.3047 5.38281ZM79.8438 10.6641C79.8438 11.4609 79.5469 12.0755 78.9531 12.5078C78.3594 12.9401 77.526 13.1562 76.4531 13.1562C75.3177 13.1562 74.4323 12.9766 73.7969 12.6172V11.4141C74.2083 11.6224 74.6484 11.7865 75.1172 11.9062C75.5911 12.026 76.0469 12.0859 76.4844 12.0859C77.1615 12.0859 77.6823 11.9792 78.0469 11.7656C78.4115 11.5469 78.5938 11.2161 78.5938 10.7734C78.5938 10.4401 78.4479 10.1562 78.1562 9.92188C77.8698 9.68229 77.3073 9.40104 76.4688 9.07812C75.6719 8.78125 75.1042 8.52344 74.7656 8.30469C74.4323 8.08073 74.1823 7.82812 74.0156 7.54688C73.8542 7.26562 73.7734 6.92969 73.7734 6.53906C73.7734 5.84115 74.0573 5.29167 74.625 4.89062C75.1927 4.48438 75.9714 4.28125 76.9609 4.28125C77.8828 4.28125 78.7839 4.46875 79.6641 4.84375L79.2031 5.89844C78.3438 5.54427 77.5651 5.36719 76.8672 5.36719C76.2526 5.36719 75.7891 5.46354 75.4766 5.65625C75.1641 5.84896 75.0078 6.11458 75.0078 6.45312C75.0078 6.68229 75.0651 6.8776 75.1797 7.03906C75.2995 7.20052 75.4896 7.35417 75.75 7.5C76.0104 7.64583 76.5104 7.85677 77.25 8.13281C78.2656 8.5026 78.9505 8.875 79.3047 9.25C79.6641 9.625 79.8438 10.0964 79.8438 10.6641ZM83.1797 4.4375V9.99219C83.1797 10.6901 83.3385 11.2109 83.6562 11.5547C83.974 11.8984 84.4714 12.0703 85.1484 12.0703C86.0443 12.0703 86.6979 11.8255 87.1094 11.3359C87.526 10.8464 87.7344 10.0469 87.7344 8.9375V4.4375H89.0312V13H87.9609L87.7734 11.8516H87.7031C87.4375 12.2734 87.0677 12.5964 86.5938 12.8203C86.125 13.0443 85.5885 13.1562 84.9844 13.1562C83.9427 13.1562 83.1615 12.9089 82.6406 12.4141C82.125 11.9193 81.8672 11.1276 81.8672 10.0391V4.4375H83.1797ZM102.703 13V7.42969C102.703 6.7474 102.557 6.23698 102.266 5.89844C101.974 5.55469 101.521 5.38281 100.906 5.38281C100.099 5.38281 99.5026 5.61458 99.1172 6.07812C98.7318 6.54167 98.5391 7.25521 98.5391 8.21875V13H97.2422V7.42969C97.2422 6.7474 97.0964 6.23698 96.8047 5.89844C96.513 5.55469 96.0573 5.38281 95.4375 5.38281C94.625 5.38281 94.0286 5.6276 93.6484 6.11719C93.2734 6.60156 93.0859 7.39844 93.0859 8.50781V13H91.7891V4.4375H92.8438L93.0547 5.60938H93.1172C93.362 5.19271 93.7057 4.86719 94.1484 4.63281C94.5964 4.39844 95.0964 4.28125 95.6484 4.28125C96.987 4.28125 97.862 4.76562 98.2734 5.73438H98.3359C98.5911 5.28646 98.9609 4.93229 99.4453 4.67188C99.9297 4.41146 100.482 4.28125 101.102 4.28125C102.07 4.28125 102.794 4.53125 103.273 5.03125C103.758 5.52604 104 6.32031 104 7.41406V13H102.703ZM116.664 11.8516H116.594C115.995 12.7214 115.099 13.1562 113.906 13.1562C112.786 13.1562 111.914 12.7734 111.289 12.0078C110.669 11.2422 110.359 10.1536 110.359 8.74219C110.359 7.33073 110.672 6.23438 111.297 5.45312C111.922 4.67188 112.792 4.28125 113.906 4.28125C115.068 4.28125 115.958 4.70312 116.578 5.54688H116.68L116.625 4.92969L116.594 4.32812V0.84375H117.891V13H116.836L116.664 11.8516ZM114.07 12.0703C114.956 12.0703 115.596 11.8307 115.992 11.3516C116.393 10.8672 116.594 10.0885 116.594 9.01562V8.74219C116.594 7.52865 116.391 6.66406 115.984 6.14844C115.583 5.6276 114.94 5.36719 114.055 5.36719C113.294 5.36719 112.711 5.66406 112.305 6.25781C111.904 6.84635 111.703 7.67969 111.703 8.75781C111.703 9.85156 111.904 10.6771 112.305 11.2344C112.706 11.7917 113.294 12.0703 114.07 12.0703ZM128.039 8.71094C128.039 10.1068 127.688 11.1979 126.984 11.9844C126.281 12.7656 125.31 13.1562 124.07 13.1562C123.305 13.1562 122.625 12.9766 122.031 12.6172C121.438 12.2578 120.979 11.7422 120.656 11.0703C120.333 10.3984 120.172 9.61198 120.172 8.71094C120.172 7.3151 120.521 6.22917 121.219 5.45312C121.917 4.67188 122.885 4.28125 124.125 4.28125C125.323 4.28125 126.273 4.67969 126.977 5.47656C127.685 6.27344 128.039 7.35156 128.039 8.71094ZM121.516 8.71094C121.516 9.80469 121.734 10.638 122.172 11.2109C122.609 11.7839 123.253 12.0703 124.102 12.0703C124.951 12.0703 125.594 11.7865 126.031 11.2188C126.474 10.6458 126.695 9.8099 126.695 8.71094C126.695 7.6224 126.474 6.79688 126.031 6.23438C125.594 5.66667 124.945 5.38281 124.086 5.38281C123.237 5.38281 122.596 5.66146 122.164 6.21875C121.732 6.77604 121.516 7.60677 121.516 8.71094ZM131.617 13H130.32V0.84375H131.617V13ZM141.758 8.71094C141.758 10.1068 141.406 11.1979 140.703 11.9844C140 12.7656 139.029 13.1562 137.789 13.1562C137.023 13.1562 136.344 12.9766 135.75 12.6172C135.156 12.2578 134.698 11.7422 134.375 11.0703C134.052 10.3984 133.891 9.61198 133.891 8.71094C133.891 7.3151 134.24 6.22917 134.938 5.45312C135.635 4.67188 136.604 4.28125 137.844 4.28125C139.042 4.28125 139.992 4.67969 140.695 5.47656C141.404 6.27344 141.758 7.35156 141.758 8.71094ZM135.234 8.71094C135.234 9.80469 135.453 10.638 135.891 11.2109C136.328 11.7839 136.971 12.0703 137.82 12.0703C138.669 12.0703 139.312 11.7865 139.75 11.2188C140.193 10.6458 140.414 9.8099 140.414 8.71094C140.414 7.6224 140.193 6.79688 139.75 6.23438C139.312 5.66667 138.664 5.38281 137.805 5.38281C136.956 5.38281 136.315 5.66146 135.883 6.21875C135.451 6.77604 135.234 7.60677 135.234 8.71094ZM147.945 4.28125C148.326 4.28125 148.667 4.3125 148.969 4.375L148.789 5.57812C148.435 5.5 148.122 5.46094 147.852 5.46094C147.159 5.46094 146.565 5.74219 146.07 6.30469C145.581 6.86719 145.336 7.56771 145.336 8.40625V13H144.039V4.4375H145.109L145.258 6.02344H145.32C145.638 5.46615 146.021 5.03646 146.469 4.73438C146.917 4.43229 147.409 4.28125 147.945 4.28125ZM160.25 10.6641C160.25 11.4609 159.953 12.0755 159.359 12.5078C158.766 12.9401 157.932 13.1562 156.859 13.1562C155.724 13.1562 154.839 12.9766 154.203 12.6172V11.4141C154.615 11.6224 155.055 11.7865 155.523 11.9062C155.997 12.026 156.453 12.0859 156.891 12.0859C157.568 12.0859 158.089 11.9792 158.453 11.7656C158.818 11.5469 159 11.2161 159 10.7734C159 10.4401 158.854 10.1562 158.562 9.92188C158.276 9.68229 157.714 9.40104 156.875 9.07812C156.078 8.78125 155.51 8.52344 155.172 8.30469C154.839 8.08073 154.589 7.82812 154.422 7.54688C154.26 7.26562 154.18 6.92969 154.18 6.53906C154.18 5.84115 154.464 5.29167 155.031 4.89062C155.599 4.48438 156.378 4.28125 157.367 4.28125C158.289 4.28125 159.19 4.46875 160.07 4.84375L159.609 5.89844C158.75 5.54427 157.971 5.36719 157.273 5.36719C156.659 5.36719 156.195 5.46354 155.883 5.65625C155.57 5.84896 155.414 6.11458 155.414 6.45312C155.414 6.68229 155.471 6.8776 155.586 7.03906C155.706 7.20052 155.896 7.35417 156.156 7.5C156.417 7.64583 156.917 7.85677 157.656 8.13281C158.672 8.5026 159.357 8.875 159.711 9.25C160.07 9.625 160.25 10.0964 160.25 10.6641ZM163.664 13H162.367V4.4375H163.664V13ZM162.258 2.11719C162.258 1.82031 162.331 1.60417 162.477 1.46875C162.622 1.32812 162.805 1.25781 163.023 1.25781C163.232 1.25781 163.411 1.32812 163.562 1.46875C163.714 1.60938 163.789 1.82552 163.789 2.11719C163.789 2.40885 163.714 2.6276 163.562 2.77344C163.411 2.91406 163.232 2.98438 163.023 2.98438C162.805 2.98438 162.622 2.91406 162.477 2.77344C162.331 2.6276 162.258 2.40885 162.258 2.11719ZM169.18 12.0859C169.409 12.0859 169.63 12.0703 169.844 12.0391C170.057 12.0026 170.227 11.9661 170.352 11.9297V12.9219C170.211 12.9896 170.003 13.0443 169.727 13.0859C169.456 13.1328 169.211 13.1562 168.992 13.1562C167.336 13.1562 166.508 12.2839 166.508 10.5391V5.44531H165.281V4.82031L166.508 4.28125L167.055 2.45312H167.805V4.4375H170.289V5.44531H167.805V10.4844C167.805 11 167.927 11.3958 168.172 11.6719C168.417 11.9479 168.753 12.0859 169.18 12.0859ZM181.492 13L181.234 11.7812H181.172C180.745 12.3177 180.318 12.6823 179.891 12.875C179.469 13.0625 178.94 13.1562 178.305 13.1562C177.456 13.1562 176.789 12.9375 176.305 12.5C175.826 12.0625 175.586 11.4401 175.586 10.6328C175.586 8.90365 176.969 7.9974 179.734 7.91406L181.188 7.86719V7.33594C181.188 6.66406 181.042 6.16927 180.75 5.85156C180.464 5.52865 180.003 5.36719 179.367 5.36719C178.654 5.36719 177.846 5.58594 176.945 6.02344L176.547 5.03125C176.969 4.80208 177.43 4.6224 177.93 4.49219C178.435 4.36198 178.94 4.29688 179.445 4.29688C180.466 4.29688 181.221 4.52344 181.711 4.97656C182.206 5.42969 182.453 6.15625 182.453 7.15625V13H181.492ZM178.562 12.0859C179.37 12.0859 180.003 11.8646 180.461 11.4219C180.924 10.9792 181.156 10.3594 181.156 9.5625V8.78906L179.859 8.84375C178.828 8.88021 178.083 9.04167 177.625 9.32812C177.172 9.60938 176.945 10.0495 176.945 10.6484C176.945 11.1172 177.086 11.474 177.367 11.7188C177.654 11.9635 178.052 12.0859 178.562 12.0859ZM196.047 13V7.42969C196.047 6.7474 195.901 6.23698 195.609 5.89844C195.318 5.55469 194.865 5.38281 194.25 5.38281C193.443 5.38281 192.846 5.61458 192.461 6.07812C192.076 6.54167 191.883 7.25521 191.883 8.21875V13H190.586V7.42969C190.586 6.7474 190.44 6.23698 190.148 5.89844C189.857 5.55469 189.401 5.38281 188.781 5.38281C187.969 5.38281 187.372 5.6276 186.992 6.11719C186.617 6.60156 186.43 7.39844 186.43 8.50781V13H185.133V4.4375H186.188L186.398 5.60938H186.461C186.706 5.19271 187.049 4.86719 187.492 4.63281C187.94 4.39844 188.44 4.28125 188.992 4.28125C190.331 4.28125 191.206 4.76562 191.617 5.73438H191.68C191.935 5.28646 192.305 4.93229 192.789 4.67188C193.273 4.41146 193.826 4.28125 194.445 4.28125C195.414 4.28125 196.138 4.53125 196.617 5.03125C197.102 5.52604 197.344 6.32031 197.344 7.41406V13H196.047ZM203.641 13.1562C202.375 13.1562 201.375 12.7708 200.641 12C199.911 11.2292 199.547 10.1589 199.547 8.78906C199.547 7.40885 199.885 6.3125 200.562 5.5C201.245 4.6875 202.159 4.28125 203.305 4.28125C204.378 4.28125 205.227 4.63542 205.852 5.34375C206.477 6.04688 206.789 6.97656 206.789 8.13281V8.95312H200.891C200.917 9.95833 201.169 10.7214 201.648 11.2422C202.133 11.763 202.812 12.0234 203.688 12.0234C204.609 12.0234 205.521 11.8307 206.422 11.4453V12.6016C205.964 12.7995 205.529 12.9401 205.117 13.0234C204.711 13.112 204.219 13.1562 203.641 13.1562ZM203.289 5.36719C202.602 5.36719 202.052 5.59115 201.641 6.03906C201.234 6.48698 200.995 7.10677 200.922 7.89844H205.398C205.398 7.08073 205.216 6.45573 204.852 6.02344C204.487 5.58594 203.966 5.36719 203.289 5.36719ZM211.773 12.0859C212.003 12.0859 212.224 12.0703 212.438 12.0391C212.651 12.0026 212.82 11.9661 212.945 11.9297V12.9219C212.805 12.9896 212.596 13.0443 212.32 13.0859C212.049 13.1328 211.805 13.1562 211.586 13.1562C209.93 13.1562 209.102 12.2839 209.102 10.5391V5.44531H207.875V4.82031L209.102 4.28125L209.648 2.45312H210.398V4.4375H212.883V5.44531H210.398V10.4844C210.398 11 210.521 11.3958 210.766 11.6719C211.01 11.9479 211.346 12.0859 211.773 12.0859ZM216.023 11.1406L216.141 11.3203C216.005 11.8411 215.81 12.4453 215.555 13.1328C215.299 13.8255 215.034 14.4688 214.758 15.0625H213.781C213.922 14.5208 214.076 13.8516 214.242 13.0547C214.414 12.2578 214.534 11.6198 214.602 11.1406H216.023ZM226.164 13.1562C224.924 13.1562 223.964 12.776 223.281 12.0156C222.604 11.25 222.266 10.1693 222.266 8.77344C222.266 7.34115 222.609 6.23438 223.297 5.45312C223.99 4.67188 224.974 4.28125 226.25 4.28125C226.661 4.28125 227.073 4.32552 227.484 4.41406C227.896 4.5026 228.219 4.60677 228.453 4.72656L228.055 5.82812C227.768 5.71354 227.456 5.61979 227.117 5.54688C226.779 5.46875 226.479 5.42969 226.219 5.42969C224.479 5.42969 223.609 6.53906 223.609 8.75781C223.609 9.8099 223.82 10.6172 224.242 11.1797C224.669 11.7422 225.299 12.0234 226.133 12.0234C226.846 12.0234 227.578 11.8698 228.328 11.5625V12.7109C227.755 13.0078 227.034 13.1562 226.164 13.1562ZM237.758 8.71094C237.758 10.1068 237.406 11.1979 236.703 11.9844C236 12.7656 235.029 13.1562 233.789 13.1562C233.023 13.1562 232.344 12.9766 231.75 12.6172C231.156 12.2578 230.698 11.7422 230.375 11.0703C230.052 10.3984 229.891 9.61198 229.891 8.71094C229.891 7.3151 230.24 6.22917 230.938 5.45312C231.635 4.67188 232.604 4.28125 233.844 4.28125C235.042 4.28125 235.992 4.67969 236.695 5.47656C237.404 6.27344 237.758 7.35156 237.758 8.71094ZM231.234 8.71094C231.234 9.80469 231.453 10.638 231.891 11.2109C232.328 11.7839 232.971 12.0703 233.82 12.0703C234.669 12.0703 235.312 11.7865 235.75 11.2188C236.193 10.6458 236.414 9.8099 236.414 8.71094C236.414 7.6224 236.193 6.79688 235.75 6.23438C235.312 5.66667 234.664 5.38281 233.805 5.38281C232.956 5.38281 232.315 5.66146 231.883 6.21875C231.451 6.77604 231.234 7.60677 231.234 8.71094ZM245.898 13V7.46094C245.898 6.76302 245.74 6.24219 245.422 5.89844C245.104 5.55469 244.607 5.38281 243.93 5.38281C243.034 5.38281 242.378 5.625 241.961 6.10938C241.544 6.59375 241.336 7.39323 241.336 8.50781V13H240.039V4.4375H241.094L241.305 5.60938H241.367C241.633 5.1875 242.005 4.86198 242.484 4.63281C242.964 4.39844 243.497 4.28125 244.086 4.28125C245.117 4.28125 245.893 4.53125 246.414 5.03125C246.935 5.52604 247.195 6.32031 247.195 7.41406V13H245.898ZM255.391 10.6641C255.391 11.4609 255.094 12.0755 254.5 12.5078C253.906 12.9401 253.073 13.1562 252 13.1562C250.865 13.1562 249.979 12.9766 249.344 12.6172V11.4141C249.755 11.6224 250.195 11.7865 250.664 11.9062C251.138 12.026 251.594 12.0859 252.031 12.0859C252.708 12.0859 253.229 11.9792 253.594 11.7656C253.958 11.5469 254.141 11.2161 254.141 10.7734C254.141 10.4401 253.995 10.1562 253.703 9.92188C253.417 9.68229 252.854 9.40104 252.016 9.07812C251.219 8.78125 250.651 8.52344 250.312 8.30469C249.979 8.08073 249.729 7.82812 249.562 7.54688C249.401 7.26562 249.32 6.92969 249.32 6.53906C249.32 5.84115 249.604 5.29167 250.172 4.89062C250.74 4.48438 251.518 4.28125 252.508 4.28125C253.43 4.28125 254.331 4.46875 255.211 4.84375L254.75 5.89844C253.891 5.54427 253.112 5.36719 252.414 5.36719C251.799 5.36719 251.336 5.46354 251.023 5.65625C250.711 5.84896 250.555 6.11458 250.555 6.45312C250.555 6.68229 250.612 6.8776 250.727 7.03906C250.846 7.20052 251.036 7.35417 251.297 7.5C251.557 7.64583 252.057 7.85677 252.797 8.13281C253.812 8.5026 254.497 8.875 254.852 9.25C255.211 9.625 255.391 10.0964 255.391 10.6641ZM261.125 13.1562C259.859 13.1562 258.859 12.7708 258.125 12C257.396 11.2292 257.031 10.1589 257.031 8.78906C257.031 7.40885 257.37 6.3125 258.047 5.5C258.729 4.6875 259.643 4.28125 260.789 4.28125C261.862 4.28125 262.711 4.63542 263.336 5.34375C263.961 6.04688 264.273 6.97656 264.273 8.13281V8.95312H258.375C258.401 9.95833 258.654 10.7214 259.133 11.2422C259.617 11.763 260.297 12.0234 261.172 12.0234C262.094 12.0234 263.005 11.8307 263.906 11.4453V12.6016C263.448 12.7995 263.013 12.9401 262.602 13.0234C262.195 13.112 261.703 13.1562 261.125 13.1562ZM260.773 5.36719C260.086 5.36719 259.536 5.59115 259.125 6.03906C258.719 6.48698 258.479 7.10677 258.406 7.89844H262.883C262.883 7.08073 262.701 6.45573 262.336 6.02344C261.971 5.58594 261.451 5.36719 260.773 5.36719ZM269.914 13.1562C268.674 13.1562 267.714 12.776 267.031 12.0156C266.354 11.25 266.016 10.1693 266.016 8.77344C266.016 7.34115 266.359 6.23438 267.047 5.45312C267.74 4.67188 268.724 4.28125 270 4.28125C270.411 4.28125 270.823 4.32552 271.234 4.41406C271.646 4.5026 271.969 4.60677 272.203 4.72656L271.805 5.82812C271.518 5.71354 271.206 5.61979 270.867 5.54688C270.529 5.46875 270.229 5.42969 269.969 5.42969C268.229 5.42969 267.359 6.53906 267.359 8.75781C267.359 9.8099 267.57 10.6172 267.992 11.1797C268.419 11.7422 269.049 12.0234 269.883 12.0234C270.596 12.0234 271.328 11.8698 272.078 11.5625V12.7109C271.505 13.0078 270.784 13.1562 269.914 13.1562ZM276.883 12.0859C277.112 12.0859 277.333 12.0703 277.547 12.0391C277.76 12.0026 277.93 11.9661 278.055 11.9297V12.9219C277.914 12.9896 277.706 13.0443 277.43 13.0859C277.159 13.1328 276.914 13.1562 276.695 13.1562C275.039 13.1562 274.211 12.2839 274.211 10.5391V5.44531H272.984V4.82031L274.211 4.28125L274.758 2.45312H275.508V4.4375H277.992V5.44531H275.508V10.4844C275.508 11 275.63 11.3958 275.875 11.6719C276.12 11.9479 276.456 12.0859 276.883 12.0859ZM283.391 13.1562C282.125 13.1562 281.125 12.7708 280.391 12C279.661 11.2292 279.297 10.1589 279.297 8.78906C279.297 7.40885 279.635 6.3125 280.312 5.5C280.995 4.6875 281.909 4.28125 283.055 4.28125C284.128 4.28125 284.977 4.63542 285.602 5.34375C286.227 6.04688 286.539 6.97656 286.539 8.13281V8.95312H280.641C280.667 9.95833 280.919 10.7214 281.398 11.2422C281.883 11.763 282.562 12.0234 283.438 12.0234C284.359 12.0234 285.271 11.8307 286.172 11.4453V12.6016C285.714 12.7995 285.279 12.9401 284.867 13.0234C284.461 13.112 283.969 13.1562 283.391 13.1562ZM283.039 5.36719C282.352 5.36719 281.802 5.59115 281.391 6.03906C280.984 6.48698 280.745 7.10677 280.672 7.89844H285.148C285.148 7.08073 284.966 6.45573 284.602 6.02344C284.237 5.58594 283.716 5.36719 283.039 5.36719ZM291.523 12.0859C291.753 12.0859 291.974 12.0703 292.188 12.0391C292.401 12.0026 292.57 11.9661 292.695 11.9297V12.9219C292.555 12.9896 292.346 13.0443 292.07 13.0859C291.799 13.1328 291.555 13.1562 291.336 13.1562C289.68 13.1562 288.852 12.2839 288.852 10.5391V5.44531H287.625V4.82031L288.852 4.28125L289.398 2.45312H290.148V4.4375H292.633V5.44531H290.148V10.4844C290.148 11 290.271 11.3958 290.516 11.6719C290.76 11.9479 291.096 12.0859 291.523 12.0859ZM295.633 4.4375V9.99219C295.633 10.6901 295.792 11.2109 296.109 11.5547C296.427 11.8984 296.924 12.0703 297.602 12.0703C298.497 12.0703 299.151 11.8255 299.562 11.3359C299.979 10.8464 300.188 10.0469 300.188 8.9375V4.4375H301.484V13H300.414L300.227 11.8516H300.156C299.891 12.2734 299.521 12.5964 299.047 12.8203C298.578 13.0443 298.042 13.1562 297.438 13.1562C296.396 13.1562 295.615 12.9089 295.094 12.4141C294.578 11.9193 294.32 11.1276 294.32 10.0391V4.4375H295.633ZM308.148 4.28125C308.529 4.28125 308.87 4.3125 309.172 4.375L308.992 5.57812C308.638 5.5 308.326 5.46094 308.055 5.46094C307.362 5.46094 306.768 5.74219 306.273 6.30469C305.784 6.86719 305.539 7.56771 305.539 8.40625V13H304.242V4.4375H305.312L305.461 6.02344H305.523C305.841 5.46615 306.224 5.03646 306.672 4.73438C307.12 4.43229 307.612 4.28125 308.148 4.28125ZM320.195 13L319.938 11.7812H319.875C319.448 12.3177 319.021 12.6823 318.594 12.875C318.172 13.0625 317.643 13.1562 317.008 13.1562C316.159 13.1562 315.492 12.9375 315.008 12.5C314.529 12.0625 314.289 11.4401 314.289 10.6328C314.289 8.90365 315.672 7.9974 318.438 7.91406L319.891 7.86719V7.33594C319.891 6.66406 319.745 6.16927 319.453 5.85156C319.167 5.52865 318.706 5.36719 318.07 5.36719C317.357 5.36719 316.549 5.58594 315.648 6.02344L315.25 5.03125C315.672 4.80208 316.133 4.6224 316.633 4.49219C317.138 4.36198 317.643 4.29688 318.148 4.29688C319.169 4.29688 319.924 4.52344 320.414 4.97656C320.909 5.42969 321.156 6.15625 321.156 7.15625V13H320.195ZM317.266 12.0859C318.073 12.0859 318.706 11.8646 319.164 11.4219C319.628 10.9792 319.859 10.3594 319.859 9.5625V8.78906L318.562 8.84375C317.531 8.88021 316.786 9.04167 316.328 9.32812C315.875 9.60938 315.648 10.0495 315.648 10.6484C315.648 11.1172 315.789 11.474 316.07 11.7188C316.357 11.9635 316.755 12.0859 317.266 12.0859ZM329.664 11.8516H329.594C328.995 12.7214 328.099 13.1562 326.906 13.1562C325.786 13.1562 324.914 12.7734 324.289 12.0078C323.669 11.2422 323.359 10.1536 323.359 8.74219C323.359 7.33073 323.672 6.23438 324.297 5.45312C324.922 4.67188 325.792 4.28125 326.906 4.28125C328.068 4.28125 328.958 4.70312 329.578 5.54688H329.68L329.625 4.92969L329.594 4.32812V0.84375H330.891V13H329.836L329.664 11.8516ZM327.07 12.0703C327.956 12.0703 328.596 11.8307 328.992 11.3516C329.393 10.8672 329.594 10.0885 329.594 9.01562V8.74219C329.594 7.52865 329.391 6.66406 328.984 6.14844C328.583 5.6276 327.94 5.36719 327.055 5.36719C326.294 5.36719 325.711 5.66406 325.305 6.25781C324.904 6.84635 324.703 7.67969 324.703 8.75781C324.703 9.85156 324.904 10.6771 325.305 11.2344C325.706 11.7917 326.294 12.0703 327.07 12.0703ZM334.945 13H333.648V4.4375H334.945V13ZM333.539 2.11719C333.539 1.82031 333.612 1.60417 333.758 1.46875C333.904 1.32812 334.086 1.25781 334.305 1.25781C334.513 1.25781 334.693 1.32812 334.844 1.46875C334.995 1.60938 335.07 1.82552 335.07 2.11719C335.07 2.40885 334.995 2.6276 334.844 2.77344C334.693 2.91406 334.513 2.98438 334.305 2.98438C334.086 2.98438 333.904 2.91406 333.758 2.77344C333.612 2.6276 333.539 2.40885 333.539 2.11719ZM341.68 13.1562C341.122 13.1562 340.612 13.0547 340.148 12.8516C339.69 12.6432 339.305 12.3255 338.992 11.8984H338.898C338.961 12.3984 338.992 12.8724 338.992 13.3203V16.8438H337.695V4.4375H338.75L338.93 5.60938H338.992C339.326 5.14062 339.714 4.80208 340.156 4.59375C340.599 4.38542 341.107 4.28125 341.68 4.28125C342.815 4.28125 343.69 4.66927 344.305 5.44531C344.924 6.22135 345.234 7.3099 345.234 8.71094C345.234 10.1172 344.919 11.2109 344.289 11.9922C343.664 12.7682 342.794 13.1562 341.68 13.1562ZM341.492 5.38281C340.617 5.38281 339.984 5.625 339.594 6.10938C339.203 6.59375 339.003 7.36458 338.992 8.42188V8.71094C338.992 9.91406 339.193 10.776 339.594 11.2969C339.995 11.8125 340.638 12.0703 341.523 12.0703C342.263 12.0703 342.841 11.7708 343.258 11.1719C343.68 10.5729 343.891 9.7474 343.891 8.69531C343.891 7.6276 343.68 6.8099 343.258 6.24219C342.841 5.66927 342.253 5.38281 341.492 5.38281ZM348.805 13H347.508V4.4375H348.805V13ZM347.398 2.11719C347.398 1.82031 347.471 1.60417 347.617 1.46875C347.763 1.32812 347.945 1.25781 348.164 1.25781C348.372 1.25781 348.552 1.32812 348.703 1.46875C348.854 1.60938 348.93 1.82552 348.93 2.11719C348.93 2.40885 348.854 2.6276 348.703 2.77344C348.552 2.91406 348.372 2.98438 348.164 2.98438C347.945 2.98438 347.763 2.91406 347.617 2.77344C347.471 2.6276 347.398 2.40885 347.398 2.11719ZM357.078 10.6641C357.078 11.4609 356.781 12.0755 356.188 12.5078C355.594 12.9401 354.76 13.1562 353.688 13.1562C352.552 13.1562 351.667 12.9766 351.031 12.6172V11.4141C351.443 11.6224 351.883 11.7865 352.352 11.9062C352.826 12.026 353.281 12.0859 353.719 12.0859C354.396 12.0859 354.917 11.9792 355.281 11.7656C355.646 11.5469 355.828 11.2161 355.828 10.7734C355.828 10.4401 355.682 10.1562 355.391 9.92188C355.104 9.68229 354.542 9.40104 353.703 9.07812C352.906 8.78125 352.339 8.52344 352 8.30469C351.667 8.08073 351.417 7.82812 351.25 7.54688C351.089 7.26562 351.008 6.92969 351.008 6.53906C351.008 5.84115 351.292 5.29167 351.859 4.89062C352.427 4.48438 353.206 4.28125 354.195 4.28125C355.117 4.28125 356.018 4.46875 356.898 4.84375L356.438 5.89844C355.578 5.54427 354.799 5.36719 354.102 5.36719C353.487 5.36719 353.023 5.46354 352.711 5.65625C352.398 5.84896 352.242 6.11458 352.242 6.45312C352.242 6.68229 352.299 6.8776 352.414 7.03906C352.534 7.20052 352.724 7.35417 352.984 7.5C353.245 7.64583 353.745 7.85677 354.484 8.13281C355.5 8.5026 356.185 8.875 356.539 9.25C356.898 9.625 357.078 10.0964 357.078 10.6641ZM362.617 13.1562C361.378 13.1562 360.417 12.776 359.734 12.0156C359.057 11.25 358.719 10.1693 358.719 8.77344C358.719 7.34115 359.062 6.23438 359.75 5.45312C360.443 4.67188 361.427 4.28125 362.703 4.28125C363.115 4.28125 363.526 4.32552 363.938 4.41406C364.349 4.5026 364.672 4.60677 364.906 4.72656L364.508 5.82812C364.221 5.71354 363.909 5.61979 363.57 5.54688C363.232 5.46875 362.932 5.42969 362.672 5.42969C360.932 5.42969 360.062 6.53906 360.062 8.75781C360.062 9.8099 360.273 10.6172 360.695 11.1797C361.122 11.7422 361.753 12.0234 362.586 12.0234C363.299 12.0234 364.031 11.8698 364.781 11.5625V12.7109C364.208 13.0078 363.487 13.1562 362.617 13.1562ZM368.117 13H366.82V4.4375H368.117V13ZM366.711 2.11719C366.711 1.82031 366.784 1.60417 366.93 1.46875C367.076 1.32812 367.258 1.25781 367.477 1.25781C367.685 1.25781 367.865 1.32812 368.016 1.46875C368.167 1.60938 368.242 1.82552 368.242 2.11719C368.242 2.40885 368.167 2.6276 368.016 2.77344C367.865 2.91406 367.685 2.98438 367.477 2.98438C367.258 2.98438 367.076 2.91406 366.93 2.77344C366.784 2.6276 366.711 2.40885 366.711 2.11719ZM376.727 13V7.46094C376.727 6.76302 376.568 6.24219 376.25 5.89844C375.932 5.55469 375.435 5.38281 374.758 5.38281C373.862 5.38281 373.206 5.625 372.789 6.10938C372.372 6.59375 372.164 7.39323 372.164 8.50781V13H370.867V4.4375H371.922L372.133 5.60938H372.195C372.461 5.1875 372.833 4.86198 373.312 4.63281C373.792 4.39844 374.326 4.28125 374.914 4.28125C375.945 4.28125 376.721 4.53125 377.242 5.03125C377.763 5.52604 378.023 6.32031 378.023 7.41406V13H376.727ZM387.703 4.4375V5.25781L386.117 5.44531C386.263 5.6276 386.393 5.86719 386.508 6.16406C386.622 6.45573 386.68 6.78646 386.68 7.15625C386.68 7.99479 386.393 8.66406 385.82 9.16406C385.247 9.66406 384.461 9.91406 383.461 9.91406C383.206 9.91406 382.966 9.89323 382.742 9.85156C382.19 10.1432 381.914 10.5104 381.914 10.9531C381.914 11.1875 382.01 11.362 382.203 11.4766C382.396 11.5859 382.727 11.6406 383.195 11.6406H384.711C385.638 11.6406 386.349 11.8359 386.844 12.2266C387.344 12.6172 387.594 13.1849 387.594 13.9297C387.594 14.8776 387.214 15.599 386.453 16.0938C385.693 16.5938 384.583 16.8438 383.125 16.8438C382.005 16.8438 381.141 16.6354 380.531 16.2188C379.927 15.8021 379.625 15.2135 379.625 14.4531C379.625 13.9323 379.792 13.4818 380.125 13.1016C380.458 12.7214 380.927 12.4635 381.531 12.3281C381.312 12.2292 381.128 12.0755 380.977 11.8672C380.831 11.6589 380.758 11.4167 380.758 11.1406C380.758 10.8281 380.841 10.5547 381.008 10.3203C381.174 10.0859 381.438 9.85938 381.797 9.64062C381.354 9.45833 380.992 9.14844 380.711 8.71094C380.435 8.27344 380.297 7.77344 380.297 7.21094C380.297 6.27344 380.578 5.55208 381.141 5.04688C381.703 4.53646 382.5 4.28125 383.531 4.28125C383.979 4.28125 384.383 4.33333 384.742 4.4375H387.703ZM380.875 14.4375C380.875 14.901 381.07 15.2526 381.461 15.4922C381.852 15.7318 382.411 15.8516 383.141 15.8516C384.229 15.8516 385.034 15.6875 385.555 15.3594C386.081 15.0365 386.344 14.5964 386.344 14.0391C386.344 13.5755 386.201 13.2526 385.914 13.0703C385.628 12.8932 385.089 12.8047 384.297 12.8047H382.742C382.154 12.8047 381.695 12.9453 381.367 13.2266C381.039 13.5078 380.875 13.9115 380.875 14.4375ZM381.578 7.17969C381.578 7.77865 381.747 8.23177 382.086 8.53906C382.424 8.84635 382.896 9 383.5 9C384.766 9 385.398 8.38542 385.398 7.15625C385.398 5.86979 384.758 5.22656 383.477 5.22656C382.867 5.22656 382.398 5.39062 382.07 5.71875C381.742 6.04688 381.578 6.53385 381.578 7.17969ZM397.234 13.1562C395.969 13.1562 394.969 12.7708 394.234 12C393.505 11.2292 393.141 10.1589 393.141 8.78906C393.141 7.40885 393.479 6.3125 394.156 5.5C394.839 4.6875 395.753 4.28125 396.898 4.28125C397.971 4.28125 398.82 4.63542 399.445 5.34375C400.07 6.04688 400.383 6.97656 400.383 8.13281V8.95312H394.484C394.51 9.95833 394.763 10.7214 395.242 11.2422C395.727 11.763 396.406 12.0234 397.281 12.0234C398.203 12.0234 399.115 11.8307 400.016 11.4453V12.6016C399.557 12.7995 399.122 12.9401 398.711 13.0234C398.305 13.112 397.812 13.1562 397.234 13.1562ZM396.883 5.36719C396.195 5.36719 395.646 5.59115 395.234 6.03906C394.828 6.48698 394.589 7.10677 394.516 7.89844H398.992C398.992 7.08073 398.81 6.45573 398.445 6.02344C398.081 5.58594 397.56 5.36719 396.883 5.36719ZM403.898 13H402.602V0.84375H403.898V13ZM407.945 13H406.648V4.4375H407.945V13ZM406.539 2.11719C406.539 1.82031 406.612 1.60417 406.758 1.46875C406.904 1.32812 407.086 1.25781 407.305 1.25781C407.513 1.25781 407.693 1.32812 407.844 1.46875C407.995 1.60938 408.07 1.82552 408.07 2.11719C408.07 2.40885 407.995 2.6276 407.844 2.77344C407.693 2.91406 407.513 2.98438 407.305 2.98438C407.086 2.98438 406.904 2.91406 406.758 2.77344C406.612 2.6276 406.539 2.40885 406.539 2.11719ZM413.461 12.0859C413.69 12.0859 413.911 12.0703 414.125 12.0391C414.339 12.0026 414.508 11.9661 414.633 11.9297V12.9219C414.492 12.9896 414.284 13.0443 414.008 13.0859C413.737 13.1328 413.492 13.1562 413.273 13.1562C411.617 13.1562 410.789 12.2839 410.789 10.5391V5.44531H409.562V4.82031L410.789 4.28125L411.336 2.45312H412.086V4.4375H414.57V5.44531H412.086V10.4844C412.086 11 412.208 11.3958 412.453 11.6719C412.698 11.9479 413.034 12.0859 413.461 12.0859ZM416.164 12.1719C416.164 11.8229 416.242 11.5599 416.398 11.3828C416.56 11.2005 416.789 11.1094 417.086 11.1094C417.388 11.1094 417.622 11.2005 417.789 11.3828C417.961 11.5599 418.047 11.8229 418.047 12.1719C418.047 12.5104 417.961 12.7708 417.789 12.9531C417.617 13.1354 417.383 13.2266 417.086 13.2266C416.82 13.2266 416.599 13.1458 416.422 12.9844C416.25 12.8177 416.164 12.5469 416.164 12.1719ZM431.414 9.96094C431.414 10.9661 431.049 11.75 430.32 12.3125C429.591 12.875 428.602 13.1562 427.352 13.1562C425.997 13.1562 424.956 12.9818 424.227 12.6328V11.3516C424.695 11.5495 425.206 11.7057 425.758 11.8203C426.31 11.9349 426.857 11.9922 427.398 11.9922C428.284 11.9922 428.951 11.8255 429.398 11.4922C429.846 11.1536 430.07 10.6849 430.07 10.0859C430.07 9.6901 429.99 9.36719 429.828 9.11719C429.672 8.86198 429.406 8.6276 429.031 8.41406C428.661 8.20052 428.096 7.95833 427.336 7.6875C426.273 7.30729 425.513 6.85677 425.055 6.33594C424.602 5.8151 424.375 5.13542 424.375 4.29688C424.375 3.41667 424.706 2.71615 425.367 2.19531C426.029 1.67448 426.904 1.41406 427.992 1.41406C429.128 1.41406 430.172 1.6224 431.125 2.03906L430.711 3.19531C429.768 2.79948 428.852 2.60156 427.961 2.60156C427.258 2.60156 426.708 2.7526 426.312 3.05469C425.917 3.35677 425.719 3.77604 425.719 4.3125C425.719 4.70833 425.792 5.03385 425.938 5.28906C426.083 5.53906 426.328 5.77083 426.672 5.98438C427.021 6.19271 427.552 6.42448 428.266 6.67969C429.464 7.10677 430.286 7.5651 430.734 8.05469C431.188 8.54427 431.414 9.17969 431.414 9.96094ZM437.172 13.1562C435.906 13.1562 434.906 12.7708 434.172 12C433.443 11.2292 433.078 10.1589 433.078 8.78906C433.078 7.40885 433.417 6.3125 434.094 5.5C434.776 4.6875 435.69 4.28125 436.836 4.28125C437.909 4.28125 438.758 4.63542 439.383 5.34375C440.008 6.04688 440.32 6.97656 440.32 8.13281V8.95312H434.422C434.448 9.95833 434.701 10.7214 435.18 11.2422C435.664 11.763 436.344 12.0234 437.219 12.0234C438.141 12.0234 439.052 11.8307 439.953 11.4453V12.6016C439.495 12.7995 439.06 12.9401 438.648 13.0234C438.242 13.112 437.75 13.1562 437.172 13.1562ZM436.82 5.36719C436.133 5.36719 435.583 5.59115 435.172 6.03906C434.766 6.48698 434.526 7.10677 434.453 7.89844H438.93C438.93 7.08073 438.747 6.45573 438.383 6.02344C438.018 5.58594 437.497 5.36719 436.82 5.36719ZM448.367 11.8516H448.297C447.698 12.7214 446.802 13.1562 445.609 13.1562C444.49 13.1562 443.617 12.7734 442.992 12.0078C442.372 11.2422 442.062 10.1536 442.062 8.74219C442.062 7.33073 442.375 6.23438 443 5.45312C443.625 4.67188 444.495 4.28125 445.609 4.28125C446.771 4.28125 447.661 4.70312 448.281 5.54688H448.383L448.328 4.92969L448.297 4.32812V0.84375H449.594V13H448.539L448.367 11.8516ZM445.773 12.0703C446.659 12.0703 447.299 11.8307 447.695 11.3516C448.096 10.8672 448.297 10.0885 448.297 9.01562V8.74219C448.297 7.52865 448.094 6.66406 447.688 6.14844C447.286 5.6276 446.643 5.36719 445.758 5.36719C444.997 5.36719 444.414 5.66406 444.008 6.25781C443.607 6.84635 443.406 7.67969 443.406 8.75781C443.406 9.85156 443.607 10.6771 444.008 11.2344C444.409 11.7917 444.997 12.0703 445.773 12.0703ZM459.273 12.0859C459.503 12.0859 459.724 12.0703 459.938 12.0391C460.151 12.0026 460.32 11.9661 460.445 11.9297V12.9219C460.305 12.9896 460.096 13.0443 459.82 13.0859C459.549 13.1328 459.305 13.1562 459.086 13.1562C457.43 13.1562 456.602 12.2839 456.602 10.5391V5.44531H455.375V4.82031L456.602 4.28125L457.148 2.45312H457.898V4.4375H460.383V5.44531H457.898V10.4844C457.898 11 458.021 11.3958 458.266 11.6719C458.51 11.9479 458.846 12.0859 459.273 12.0859ZM463.461 13H462.164V4.4375H463.461V13ZM462.055 2.11719C462.055 1.82031 462.128 1.60417 462.273 1.46875C462.419 1.32812 462.602 1.25781 462.82 1.25781C463.029 1.25781 463.208 1.32812 463.359 1.46875C463.51 1.60938 463.586 1.82552 463.586 2.11719C463.586 2.40885 463.51 2.6276 463.359 2.77344C463.208 2.91406 463.029 2.98438 462.82 2.98438C462.602 2.98438 462.419 2.91406 462.273 2.77344C462.128 2.6276 462.055 2.40885 462.055 2.11719ZM472.07 13V7.46094C472.07 6.76302 471.911 6.24219 471.594 5.89844C471.276 5.55469 470.779 5.38281 470.102 5.38281C469.206 5.38281 468.549 5.625 468.133 6.10938C467.716 6.59375 467.508 7.39323 467.508 8.50781V13H466.211V4.4375H467.266L467.477 5.60938H467.539C467.805 5.1875 468.177 4.86198 468.656 4.63281C469.135 4.39844 469.669 4.28125 470.258 4.28125C471.289 4.28125 472.065 4.53125 472.586 5.03125C473.107 5.52604 473.367 6.32031 473.367 7.41406V13H472.07ZM479.461 13.1562C478.221 13.1562 477.26 12.776 476.578 12.0156C475.901 11.25 475.562 10.1693 475.562 8.77344C475.562 7.34115 475.906 6.23438 476.594 5.45312C477.286 4.67188 478.271 4.28125 479.547 4.28125C479.958 4.28125 480.37 4.32552 480.781 4.41406C481.193 4.5026 481.516 4.60677 481.75 4.72656L481.352 5.82812C481.065 5.71354 480.753 5.61979 480.414 5.54688C480.076 5.46875 479.776 5.42969 479.516 5.42969C477.776 5.42969 476.906 6.53906 476.906 8.75781C476.906 9.8099 477.117 10.6172 477.539 11.1797C477.966 11.7422 478.596 12.0234 479.43 12.0234C480.143 12.0234 480.875 11.8698 481.625 11.5625V12.7109C481.052 13.0078 480.331 13.1562 479.461 13.1562ZM484.961 13H483.664V4.4375H484.961V13ZM483.555 2.11719C483.555 1.82031 483.628 1.60417 483.773 1.46875C483.919 1.32812 484.102 1.25781 484.32 1.25781C484.529 1.25781 484.708 1.32812 484.859 1.46875C485.01 1.60938 485.086 1.82552 485.086 2.11719C485.086 2.40885 485.01 2.6276 484.859 2.77344C484.708 2.91406 484.529 2.98438 484.32 2.98438C484.102 2.98438 483.919 2.91406 483.773 2.77344C483.628 2.6276 483.555 2.40885 483.555 2.11719ZM493.539 11.8516H493.469C492.87 12.7214 491.974 13.1562 490.781 13.1562C489.661 13.1562 488.789 12.7734 488.164 12.0078C487.544 11.2422 487.234 10.1536 487.234 8.74219C487.234 7.33073 487.547 6.23438 488.172 5.45312C488.797 4.67188 489.667 4.28125 490.781 4.28125C491.943 4.28125 492.833 4.70312 493.453 5.54688H493.555L493.5 4.92969L493.469 4.32812V0.84375H494.766V13H493.711L493.539 11.8516ZM490.945 12.0703C491.831 12.0703 492.471 11.8307 492.867 11.3516C493.268 10.8672 493.469 10.0885 493.469 9.01562V8.74219C493.469 7.52865 493.266 6.66406 492.859 6.14844C492.458 5.6276 491.815 5.36719 490.93 5.36719C490.169 5.36719 489.586 5.66406 489.18 6.25781C488.779 6.84635 488.578 7.67969 488.578 8.75781C488.578 9.85156 488.779 10.6771 489.18 11.2344C489.581 11.7917 490.169 12.0703 490.945 12.0703ZM498.742 4.4375V9.99219C498.742 10.6901 498.901 11.2109 499.219 11.5547C499.536 11.8984 500.034 12.0703 500.711 12.0703C501.607 12.0703 502.26 11.8255 502.672 11.3359C503.089 10.8464 503.297 10.0469 503.297 8.9375V4.4375H504.594V13H503.523L503.336 11.8516H503.266C503 12.2734 502.63 12.5964 502.156 12.8203C501.688 13.0443 501.151 13.1562 500.547 13.1562C499.505 13.1562 498.724 12.9089 498.203 12.4141C497.688 11.9193 497.43 11.1276 497.43 10.0391V4.4375H498.742ZM513.211 13V7.46094C513.211 6.76302 513.052 6.24219 512.734 5.89844C512.417 5.55469 511.919 5.38281 511.242 5.38281C510.346 5.38281 509.69 5.625 509.273 6.10938C508.857 6.59375 508.648 7.39323 508.648 8.50781V13H507.352V4.4375H508.406L508.617 5.60938H508.68C508.945 5.1875 509.318 4.86198 509.797 4.63281C510.276 4.39844 510.81 4.28125 511.398 4.28125C512.43 4.28125 513.206 4.53125 513.727 5.03125C514.247 5.52604 514.508 6.32031 514.508 7.41406V13H513.211ZM519.945 12.0859C520.174 12.0859 520.396 12.0703 520.609 12.0391C520.823 12.0026 520.992 11.9661 521.117 11.9297V12.9219C520.977 12.9896 520.768 13.0443 520.492 13.0859C520.221 13.1328 519.977 13.1562 519.758 13.1562C518.102 13.1562 517.273 12.2839 517.273 10.5391V5.44531H516.047V4.82031L517.273 4.28125L517.82 2.45312H518.57V4.4375H521.055V5.44531H518.57V10.4844C518.57 11 518.693 11.3958 518.938 11.6719C519.182 11.9479 519.518 12.0859 519.945 12.0859ZM4.02344 45.1562C2.78385 45.1562 1.82292 44.776 1.14062 44.0156C0.463542 43.25 0.125 42.1693 0.125 40.7734C0.125 39.3411 0.46875 38.2344 1.15625 37.4531C1.84896 36.6719 2.83333 36.2812 4.10938 36.2812C4.52083 36.2812 4.93229 36.3255 5.34375 36.4141C5.75521 36.5026 6.07812 36.6068 6.3125 36.7266L5.91406 37.8281C5.6276 37.7135 5.3151 37.6198 4.97656 37.5469C4.63802 37.4688 4.33854 37.4297 4.07812 37.4297C2.33854 37.4297 1.46875 38.5391 1.46875 40.7578C1.46875 41.8099 1.67969 42.6172 2.10156 43.1797C2.52865 43.7422 3.15885 44.0234 3.99219 44.0234C4.70573 44.0234 5.4375 43.8698 6.1875 43.5625V44.7109C5.61458 45.0078 4.89323 45.1562 4.02344 45.1562ZM15.6172 40.7109C15.6172 42.1068 15.2656 43.1979 14.5625 43.9844C13.8594 44.7656 12.888 45.1562 11.6484 45.1562C10.8828 45.1562 10.2031 44.9766 9.60938 44.6172C9.01562 44.2578 8.55729 43.7422 8.23438 43.0703C7.91146 42.3984 7.75 41.612 7.75 40.7109C7.75 39.3151 8.09896 38.2292 8.79688 37.4531C9.49479 36.6719 10.4635 36.2812 11.7031 36.2812C12.901 36.2812 13.8516 36.6797 14.5547 37.4766C15.263 38.2734 15.6172 39.3516 15.6172 40.7109ZM9.09375 40.7109C9.09375 41.8047 9.3125 42.638 9.75 43.2109C10.1875 43.7839 10.8307 44.0703 11.6797 44.0703C12.5286 44.0703 13.1719 43.7865 13.6094 43.2188C14.0521 42.6458 14.2734 41.8099 14.2734 40.7109C14.2734 39.6224 14.0521 38.7969 13.6094 38.2344C13.1719 37.6667 12.5234 37.3828 11.6641 37.3828C10.8151 37.3828 10.1745 37.6615 9.74219 38.2188C9.3099 38.776 9.09375 39.6068 9.09375 40.7109ZM23.7578 45V39.4609C23.7578 38.763 23.599 38.2422 23.2812 37.8984C22.9635 37.5547 22.4661 37.3828 21.7891 37.3828C20.8932 37.3828 20.237 37.625 19.8203 38.1094C19.4036 38.5938 19.1953 39.3932 19.1953 40.5078V45H17.8984V36.4375H18.9531L19.1641 37.6094H19.2266C19.4922 37.1875 19.8646 36.862 20.3438 36.6328C20.8229 36.3984 21.3568 36.2812 21.9453 36.2812C22.9766 36.2812 23.7526 36.5312 24.2734 37.0312C24.7943 37.526 25.0547 38.3203 25.0547 39.4141V45H23.7578ZM34.7344 36.4375V37.2578L33.1484 37.4453C33.2943 37.6276 33.4245 37.8672 33.5391 38.1641C33.6536 38.4557 33.7109 38.7865 33.7109 39.1562C33.7109 39.9948 33.4245 40.6641 32.8516 41.1641C32.2786 41.6641 31.4922 41.9141 30.4922 41.9141C30.237 41.9141 29.9974 41.8932 29.7734 41.8516C29.2214 42.1432 28.9453 42.5104 28.9453 42.9531C28.9453 43.1875 29.0417 43.362 29.2344 43.4766C29.4271 43.5859 29.7578 43.6406 30.2266 43.6406H31.7422C32.6693 43.6406 33.3802 43.8359 33.875 44.2266C34.375 44.6172 34.625 45.1849 34.625 45.9297C34.625 46.8776 34.2448 47.599 33.4844 48.0938C32.724 48.5938 31.6146 48.8438 30.1562 48.8438C29.0365 48.8438 28.1719 48.6354 27.5625 48.2188C26.9583 47.8021 26.6562 47.2135 26.6562 46.4531C26.6562 45.9323 26.8229 45.4818 27.1562 45.1016C27.4896 44.7214 27.9583 44.4635 28.5625 44.3281C28.3438 44.2292 28.1589 44.0755 28.0078 43.8672C27.862 43.6589 27.7891 43.4167 27.7891 43.1406C27.7891 42.8281 27.8724 42.5547 28.0391 42.3203C28.2057 42.0859 28.4688 41.8594 28.8281 41.6406C28.3854 41.4583 28.0234 41.1484 27.7422 40.7109C27.4661 40.2734 27.3281 39.7734 27.3281 39.2109C27.3281 38.2734 27.6094 37.5521 28.1719 37.0469C28.7344 36.5365 29.5312 36.2812 30.5625 36.2812C31.0104 36.2812 31.4141 36.3333 31.7734 36.4375H34.7344ZM27.9062 46.4375C27.9062 46.901 28.1016 47.2526 28.4922 47.4922C28.8828 47.7318 29.4427 47.8516 30.1719 47.8516C31.2604 47.8516 32.0651 47.6875 32.5859 47.3594C33.112 47.0365 33.375 46.5964 33.375 46.0391C33.375 45.5755 33.2318 45.2526 32.9453 45.0703C32.6589 44.8932 32.1198 44.8047 31.3281 44.8047H29.7734C29.1849 44.8047 28.7266 44.9453 28.3984 45.2266C28.0703 45.5078 27.9062 45.9115 27.9062 46.4375ZM28.6094 39.1797C28.6094 39.7786 28.7786 40.2318 29.1172 40.5391C29.4557 40.8464 29.9271 41 30.5312 41C31.7969 41 32.4297 40.3854 32.4297 39.1562C32.4297 37.8698 31.7891 37.2266 30.5078 37.2266C29.8984 37.2266 29.4297 37.3906 29.1016 37.7188C28.7734 38.0469 28.6094 38.5339 28.6094 39.1797ZM37.7109 36.4375V41.9922C37.7109 42.6901 37.8698 43.2109 38.1875 43.5547C38.5052 43.8984 39.0026 44.0703 39.6797 44.0703C40.5755 44.0703 41.2292 43.8255 41.6406 43.3359C42.0573 42.8464 42.2656 42.0469 42.2656 40.9375V36.4375H43.5625V45H42.4922L42.3047 43.8516H42.2344C41.9688 44.2734 41.599 44.5964 41.125 44.8203C40.6562 45.0443 40.1198 45.1562 39.5156 45.1562C38.474 45.1562 37.6927 44.9089 37.1719 44.4141C36.6562 43.9193 36.3984 43.1276 36.3984 42.0391V36.4375H37.7109ZM49.9375 45.1562C48.6719 45.1562 47.6719 44.7708 46.9375 44C46.2083 43.2292 45.8438 42.1589 45.8438 40.7891C45.8438 39.4089 46.1823 38.3125 46.8594 37.5C47.5417 36.6875 48.4557 36.2812 49.6016 36.2812C50.6745 36.2812 51.5234 36.6354 52.1484 37.3438C52.7734 38.0469 53.0859 38.9766 53.0859 40.1328V40.9531H47.1875C47.2135 41.9583 47.4661 42.7214 47.9453 43.2422C48.4297 43.763 49.1094 44.0234 49.9844 44.0234C50.9062 44.0234 51.8177 43.8307 52.7188 43.4453V44.6016C52.2604 44.7995 51.8255 44.9401 51.4141 45.0234C51.0078 45.112 50.5156 45.1562 49.9375 45.1562ZM49.5859 37.3672C48.8984 37.3672 48.349 37.5911 47.9375 38.0391C47.5312 38.487 47.2917 39.1068 47.2188 39.8984H51.6953C51.6953 39.0807 51.513 38.4557 51.1484 38.0234C50.7839 37.5859 50.263 37.3672 49.5859 37.3672ZM60.7578 45H59.4609V32.8438H60.7578V45ZM64.8047 45H63.5078V36.4375H64.8047V45ZM63.3984 34.1172C63.3984 33.8203 63.4714 33.6042 63.6172 33.4688C63.763 33.3281 63.9453 33.2578 64.1641 33.2578C64.3724 33.2578 64.5521 33.3281 64.7031 33.4688C64.8542 33.6094 64.9297 33.8255 64.9297 34.1172C64.9297 34.4089 64.8542 34.6276 64.7031 34.7734C64.5521 34.9141 64.3724 34.9844 64.1641 34.9844C63.9453 34.9844 63.763 34.9141 63.6172 34.7734C63.4714 34.6276 63.3984 34.4089 63.3984 34.1172ZM74.5625 36.4375V37.2578L72.9766 37.4453C73.1224 37.6276 73.2526 37.8672 73.3672 38.1641C73.4818 38.4557 73.5391 38.7865 73.5391 39.1562C73.5391 39.9948 73.2526 40.6641 72.6797 41.1641C72.1068 41.6641 71.3203 41.9141 70.3203 41.9141C70.0651 41.9141 69.8255 41.8932 69.6016 41.8516C69.0495 42.1432 68.7734 42.5104 68.7734 42.9531C68.7734 43.1875 68.8698 43.362 69.0625 43.4766C69.2552 43.5859 69.5859 43.6406 70.0547 43.6406H71.5703C72.4974 43.6406 73.2083 43.8359 73.7031 44.2266C74.2031 44.6172 74.4531 45.1849 74.4531 45.9297C74.4531 46.8776 74.0729 47.599 73.3125 48.0938C72.5521 48.5938 71.4427 48.8438 69.9844 48.8438C68.8646 48.8438 68 48.6354 67.3906 48.2188C66.7865 47.8021 66.4844 47.2135 66.4844 46.4531C66.4844 45.9323 66.651 45.4818 66.9844 45.1016C67.3177 44.7214 67.7865 44.4635 68.3906 44.3281C68.1719 44.2292 67.987 44.0755 67.8359 43.8672C67.6901 43.6589 67.6172 43.4167 67.6172 43.1406C67.6172 42.8281 67.7005 42.5547 67.8672 42.3203C68.0339 42.0859 68.2969 41.8594 68.6562 41.6406C68.2135 41.4583 67.8516 41.1484 67.5703 40.7109C67.2943 40.2734 67.1562 39.7734 67.1562 39.2109C67.1562 38.2734 67.4375 37.5521 68 37.0469C68.5625 36.5365 69.3594 36.2812 70.3906 36.2812C70.8385 36.2812 71.2422 36.3333 71.6016 36.4375H74.5625ZM67.7344 46.4375C67.7344 46.901 67.9297 47.2526 68.3203 47.4922C68.7109 47.7318 69.2708 47.8516 70 47.8516C71.0885 47.8516 71.8932 47.6875 72.4141 47.3594C72.9401 47.0365 73.2031 46.5964 73.2031 46.0391C73.2031 45.5755 73.0599 45.2526 72.7734 45.0703C72.487 44.8932 71.9479 44.8047 71.1562 44.8047H69.6016C69.013 44.8047 68.5547 44.9453 68.2266 45.2266C67.8984 45.5078 67.7344 45.9115 67.7344 46.4375ZM68.4375 39.1797C68.4375 39.7786 68.6068 40.2318 68.9453 40.5391C69.2839 40.8464 69.7552 41 70.3594 41C71.625 41 72.2578 40.3854 72.2578 39.1562C72.2578 37.8698 71.6172 37.2266 70.3359 37.2266C69.7266 37.2266 69.2578 37.3906 68.9297 37.7188C68.6016 38.0469 68.4375 38.5339 68.4375 39.1797ZM77.5391 36.4375V41.9922C77.5391 42.6901 77.6979 43.2109 78.0156 43.5547C78.3333 43.8984 78.8307 44.0703 79.5078 44.0703C80.4036 44.0703 81.0573 43.8255 81.4688 43.3359C81.8854 42.8464 82.0938 42.0469 82.0938 40.9375V36.4375H83.3906V45H82.3203L82.1328 43.8516H82.0625C81.7969 44.2734 81.4271 44.5964 80.9531 44.8203C80.4844 45.0443 79.9479 45.1562 79.3438 45.1562C78.3021 45.1562 77.5208 44.9089 77 44.4141C76.4844 43.9193 76.2266 43.1276 76.2266 42.0391V36.4375H77.5391ZM87.4453 45H86.1484V32.8438H87.4453V45ZM95.4609 45L95.2031 43.7812H95.1406C94.7135 44.3177 94.2865 44.6823 93.8594 44.875C93.4375 45.0625 92.9089 45.1562 92.2734 45.1562C91.4245 45.1562 90.7578 44.9375 90.2734 44.5C89.7943 44.0625 89.5547 43.4401 89.5547 42.6328C89.5547 40.9036 90.9375 39.9974 93.7031 39.9141L95.1562 39.8672V39.3359C95.1562 38.6641 95.0104 38.1693 94.7188 37.8516C94.4323 37.5286 93.9714 37.3672 93.3359 37.3672C92.6224 37.3672 91.8151 37.5859 90.9141 38.0234L90.5156 37.0312C90.9375 36.8021 91.3984 36.6224 91.8984 36.4922C92.4036 36.362 92.9089 36.2969 93.4141 36.2969C94.4349 36.2969 95.1901 36.5234 95.6797 36.9766C96.1745 37.4297 96.4219 38.1562 96.4219 39.1562V45H95.4609ZM92.5312 44.0859C93.3385 44.0859 93.9714 43.8646 94.4297 43.4219C94.8932 42.9792 95.125 42.3594 95.125 41.5625V40.7891L93.8281 40.8438C92.7969 40.8802 92.0521 41.0417 91.5938 41.3281C91.1406 41.6094 90.9141 42.0495 90.9141 42.6484C90.9141 43.1172 91.0547 43.474 91.3359 43.7188C91.6224 43.9635 92.0208 44.0859 92.5312 44.0859ZM104.555 45H103.258V36.4375H104.555V45ZM103.148 34.1172C103.148 33.8203 103.221 33.6042 103.367 33.4688C103.513 33.3281 103.695 33.2578 103.914 33.2578C104.122 33.2578 104.302 33.3281 104.453 33.4688C104.604 33.6094 104.68 33.8255 104.68 34.1172C104.68 34.4089 104.604 34.6276 104.453 34.7734C104.302 34.9141 104.122 34.9844 103.914 34.9844C103.695 34.9844 103.513 34.9141 103.367 34.7734C103.221 34.6276 103.148 34.4089 103.148 34.1172ZM113.164 45V39.4609C113.164 38.763 113.005 38.2422 112.688 37.8984C112.37 37.5547 111.872 37.3828 111.195 37.3828C110.299 37.3828 109.643 37.625 109.227 38.1094C108.81 38.5938 108.602 39.3932 108.602 40.5078V45H107.305V36.4375H108.359L108.57 37.6094H108.633C108.898 37.1875 109.271 36.862 109.75 36.6328C110.229 36.3984 110.763 36.2812 111.352 36.2812C112.383 36.2812 113.159 36.5312 113.68 37.0312C114.201 37.526 114.461 38.3203 114.461 39.4141V45H113.164ZM125.195 36.2812C125.576 36.2812 125.917 36.3125 126.219 36.375L126.039 37.5781C125.685 37.5 125.372 37.4609 125.102 37.4609C124.409 37.4609 123.815 37.7422 123.32 38.3047C122.831 38.8672 122.586 39.5677 122.586 40.4062V45H121.289V36.4375H122.359L122.508 38.0234H122.57C122.888 37.4661 123.271 37.0365 123.719 36.7344C124.167 36.4323 124.659 36.2812 125.195 36.2812ZM129.039 36.4375V41.9922C129.039 42.6901 129.198 43.2109 129.516 43.5547C129.833 43.8984 130.331 44.0703 131.008 44.0703C131.904 44.0703 132.557 43.8255 132.969 43.3359C133.385 42.8464 133.594 42.0469 133.594 40.9375V36.4375H134.891V45H133.82L133.633 43.8516H133.562C133.297 44.2734 132.927 44.5964 132.453 44.8203C131.984 45.0443 131.448 45.1562 130.844 45.1562C129.802 45.1562 129.021 44.9089 128.5 44.4141C127.984 43.9193 127.727 43.1276 127.727 42.0391V36.4375H129.039ZM140.414 44.0859C140.643 44.0859 140.865 44.0703 141.078 44.0391C141.292 44.0026 141.461 43.9661 141.586 43.9297V44.9219C141.445 44.9896 141.237 45.0443 140.961 45.0859C140.69 45.1328 140.445 45.1562 140.227 45.1562C138.57 45.1562 137.742 44.2839 137.742 42.5391V37.4453H136.516V36.8203L137.742 36.2812L138.289 34.4531H139.039V36.4375H141.523V37.4453H139.039V42.4844C139.039 43 139.161 43.3958 139.406 43.6719C139.651 43.9479 139.987 44.0859 140.414 44.0859ZM147.211 36.2812C147.591 36.2812 147.932 36.3125 148.234 36.375L148.055 37.5781C147.701 37.5 147.388 37.4609 147.117 37.4609C146.424 37.4609 145.831 37.7422 145.336 38.3047C144.846 38.8672 144.602 39.5677 144.602 40.4062V45H143.305V36.4375H144.375L144.523 38.0234H144.586C144.904 37.4661 145.286 37.0365 145.734 36.7344C146.182 36.4323 146.674 36.2812 147.211 36.2812ZM151.055 36.4375V41.9922C151.055 42.6901 151.214 43.2109 151.531 43.5547C151.849 43.8984 152.346 44.0703 153.023 44.0703C153.919 44.0703 154.573 43.8255 154.984 43.3359C155.401 42.8464 155.609 42.0469 155.609 40.9375V36.4375H156.906V45H155.836L155.648 43.8516H155.578C155.312 44.2734 154.943 44.5964 154.469 44.8203C154 45.0443 153.464 45.1562 152.859 45.1562C151.818 45.1562 151.036 44.9089 150.516 44.4141C150 43.9193 149.742 43.1276 149.742 42.0391V36.4375H151.055ZM170.578 45V39.4297C170.578 38.7474 170.432 38.237 170.141 37.8984C169.849 37.5547 169.396 37.3828 168.781 37.3828C167.974 37.3828 167.378 37.6146 166.992 38.0781C166.607 38.5417 166.414 39.2552 166.414 40.2188V45H165.117V39.4297C165.117 38.7474 164.971 38.237 164.68 37.8984C164.388 37.5547 163.932 37.3828 163.312 37.3828C162.5 37.3828 161.904 37.6276 161.523 38.1172C161.148 38.6016 160.961 39.3984 160.961 40.5078V45H159.664V36.4375H160.719L160.93 37.6094H160.992C161.237 37.1927 161.581 36.8672 162.023 36.6328C162.471 36.3984 162.971 36.2812 163.523 36.2812C164.862 36.2812 165.737 36.7656 166.148 37.7344H166.211C166.466 37.2865 166.836 36.9323 167.32 36.6719C167.805 36.4115 168.357 36.2812 168.977 36.2812C169.945 36.2812 170.669 36.5312 171.148 37.0312C171.633 37.526 171.875 38.3203 171.875 39.4141V45H170.578ZM174.367 44.1719C174.367 43.8229 174.445 43.5599 174.602 43.3828C174.763 43.2005 174.992 43.1094 175.289 43.1094C175.591 43.1094 175.826 43.2005 175.992 43.3828C176.164 43.5599 176.25 43.8229 176.25 44.1719C176.25 44.5104 176.164 44.7708 175.992 44.9531C175.82 45.1354 175.586 45.2266 175.289 45.2266C175.023 45.2266 174.802 45.1458 174.625 44.9844C174.453 44.8177 174.367 44.5469 174.367 44.1719ZM188.227 45L184.352 34.875H184.289C184.362 35.6771 184.398 36.6302 184.398 37.7344V45H183.172V33.5781H185.172L188.789 43H188.852L192.5 33.5781H194.484V45H193.156V37.6406C193.156 36.7969 193.193 35.8802 193.266 34.8906H193.203L189.297 45H188.227ZM204.82 40.7109C204.82 42.1068 204.469 43.1979 203.766 43.9844C203.062 44.7656 202.091 45.1562 200.852 45.1562C200.086 45.1562 199.406 44.9766 198.812 44.6172C198.219 44.2578 197.76 43.7422 197.438 43.0703C197.115 42.3984 196.953 41.612 196.953 40.7109C196.953 39.3151 197.302 38.2292 198 37.4531C198.698 36.6719 199.667 36.2812 200.906 36.2812C202.104 36.2812 203.055 36.6797 203.758 37.4766C204.466 38.2734 204.82 39.3516 204.82 40.7109ZM198.297 40.7109C198.297 41.8047 198.516 42.638 198.953 43.2109C199.391 43.7839 200.034 44.0703 200.883 44.0703C201.732 44.0703 202.375 43.7865 202.812 43.2188C203.255 42.6458 203.477 41.8099 203.477 40.7109C203.477 39.6224 203.255 38.7969 202.812 38.2344C202.375 37.6667 201.727 37.3828 200.867 37.3828C200.018 37.3828 199.378 37.6615 198.945 38.2188C198.513 38.776 198.297 39.6068 198.297 40.7109ZM211.008 36.2812C211.388 36.2812 211.729 36.3125 212.031 36.375L211.852 37.5781C211.497 37.5 211.185 37.4609 210.914 37.4609C210.221 37.4609 209.628 37.7422 209.133 38.3047C208.643 38.8672 208.398 39.5677 208.398 40.4062V45H207.102V36.4375H208.172L208.32 38.0234H208.383C208.701 37.4661 209.083 37.0365 209.531 36.7344C209.979 36.4323 210.471 36.2812 211.008 36.2812ZM217.617 36.2969C218.742 36.2969 219.615 36.6823 220.234 37.4531C220.859 38.2188 221.172 39.3047 221.172 40.7109C221.172 42.1172 220.857 43.2109 220.227 43.9922C219.602 44.7682 218.732 45.1562 217.617 45.1562C217.06 45.1562 216.549 45.0547 216.086 44.8516C215.628 44.6432 215.242 44.3255 214.93 43.8984H214.836L214.562 45H213.633V32.8438H214.93V35.7969C214.93 36.4583 214.909 37.0521 214.867 37.5781H214.93C215.534 36.724 216.43 36.2969 217.617 36.2969ZM217.43 37.3828C216.544 37.3828 215.906 37.638 215.516 38.1484C215.125 38.6536 214.93 39.5078 214.93 40.7109C214.93 41.9141 215.13 42.776 215.531 43.2969C215.932 43.8125 216.576 44.0703 217.461 44.0703C218.258 44.0703 218.852 43.7812 219.242 43.2031C219.633 42.6198 219.828 41.7839 219.828 40.6953C219.828 39.5807 219.633 38.75 219.242 38.2031C218.852 37.6562 218.247 37.3828 217.43 37.3828ZM224.742 45H223.445V36.4375H224.742V45ZM223.336 34.1172C223.336 33.8203 223.409 33.6042 223.555 33.4688C223.701 33.3281 223.883 33.2578 224.102 33.2578C224.31 33.2578 224.49 33.3281 224.641 33.4688C224.792 33.6094 224.867 33.8255 224.867 34.1172C224.867 34.4089 224.792 34.6276 224.641 34.7734C224.49 34.9141 224.31 34.9844 224.102 34.9844C223.883 34.9844 223.701 34.9141 223.555 34.7734C223.409 34.6276 223.336 34.4089 223.336 34.1172ZM237.508 45V39.4609C237.508 38.763 237.349 38.2422 237.031 37.8984C236.714 37.5547 236.216 37.3828 235.539 37.3828C234.643 37.3828 233.987 37.625 233.57 38.1094C233.154 38.5938 232.945 39.3932 232.945 40.5078V45H231.648V36.4375H232.703L232.914 37.6094H232.977C233.242 37.1875 233.615 36.862 234.094 36.6328C234.573 36.3984 235.107 36.2812 235.695 36.2812C236.727 36.2812 237.503 36.5312 238.023 37.0312C238.544 37.526 238.805 38.3203 238.805 39.4141V45H237.508ZM245.094 45.1562C243.828 45.1562 242.828 44.7708 242.094 44C241.365 43.2292 241 42.1589 241 40.7891C241 39.4089 241.339 38.3125 242.016 37.5C242.698 36.6875 243.612 36.2812 244.758 36.2812C245.831 36.2812 246.68 36.6354 247.305 37.3438C247.93 38.0469 248.242 38.9766 248.242 40.1328V40.9531H242.344C242.37 41.9583 242.622 42.7214 243.102 43.2422C243.586 43.763 244.266 44.0234 245.141 44.0234C246.062 44.0234 246.974 43.8307 247.875 43.4453V44.6016C247.417 44.7995 246.982 44.9401 246.57 45.0234C246.164 45.112 245.672 45.1562 245.094 45.1562ZM244.742 37.3672C244.055 37.3672 243.505 37.5911 243.094 38.0391C242.688 38.487 242.448 39.1068 242.375 39.8984H246.852C246.852 39.0807 246.669 38.4557 246.305 38.0234C245.94 37.5859 245.419 37.3672 244.742 37.3672ZM255.914 45H254.617V32.8438H255.914V45ZM263.93 45L263.672 43.7812H263.609C263.182 44.3177 262.755 44.6823 262.328 44.875C261.906 45.0625 261.378 45.1562 260.742 45.1562C259.893 45.1562 259.227 44.9375 258.742 44.5C258.263 44.0625 258.023 43.4401 258.023 42.6328C258.023 40.9036 259.406 39.9974 262.172 39.9141L263.625 39.8672V39.3359C263.625 38.6641 263.479 38.1693 263.188 37.8516C262.901 37.5286 262.44 37.3672 261.805 37.3672C261.091 37.3672 260.284 37.5859 259.383 38.0234L258.984 37.0312C259.406 36.8021 259.867 36.6224 260.367 36.4922C260.872 36.362 261.378 36.2969 261.883 36.2969C262.904 36.2969 263.659 36.5234 264.148 36.9766C264.643 37.4297 264.891 38.1562 264.891 39.1562V45H263.93ZM261 44.0859C261.807 44.0859 262.44 43.8646 262.898 43.4219C263.362 42.9792 263.594 42.3594 263.594 41.5625V40.7891L262.297 40.8438C261.266 40.8802 260.521 41.0417 260.062 41.3281C259.609 41.6094 259.383 42.0495 259.383 42.6484C259.383 43.1172 259.523 43.474 259.805 43.7188C260.091 43.9635 260.49 44.0859 261 44.0859ZM270.992 45.1562C269.753 45.1562 268.792 44.776 268.109 44.0156C267.432 43.25 267.094 42.1693 267.094 40.7734C267.094 39.3411 267.438 38.2344 268.125 37.4531C268.818 36.6719 269.802 36.2812 271.078 36.2812C271.49 36.2812 271.901 36.3255 272.312 36.4141C272.724 36.5026 273.047 36.6068 273.281 36.7266L272.883 37.8281C272.596 37.7135 272.284 37.6198 271.945 37.5469C271.607 37.4688 271.307 37.4297 271.047 37.4297C269.307 37.4297 268.438 38.5391 268.438 40.7578C268.438 41.8099 268.648 42.6172 269.07 43.1797C269.497 43.7422 270.128 44.0234 270.961 44.0234C271.674 44.0234 272.406 43.8698 273.156 43.5625V44.7109C272.583 45.0078 271.862 45.1562 270.992 45.1562ZM276.414 36.4375V41.9922C276.414 42.6901 276.573 43.2109 276.891 43.5547C277.208 43.8984 277.706 44.0703 278.383 44.0703C279.279 44.0703 279.932 43.8255 280.344 43.3359C280.76 42.8464 280.969 42.0469 280.969 40.9375V36.4375H282.266V45H281.195L281.008 43.8516H280.938C280.672 44.2734 280.302 44.5964 279.828 44.8203C279.359 45.0443 278.823 45.1562 278.219 45.1562C277.177 45.1562 276.396 44.9089 275.875 44.4141C275.359 43.9193 275.102 43.1276 275.102 42.0391V36.4375H276.414ZM290.547 42.6641C290.547 43.4609 290.25 44.0755 289.656 44.5078C289.062 44.9401 288.229 45.1562 287.156 45.1562C286.021 45.1562 285.135 44.9766 284.5 44.6172V43.4141C284.911 43.6224 285.352 43.7865 285.82 43.9062C286.294 44.026 286.75 44.0859 287.188 44.0859C287.865 44.0859 288.385 43.9792 288.75 43.7656C289.115 43.5469 289.297 43.2161 289.297 42.7734C289.297 42.4401 289.151 42.1562 288.859 41.9219C288.573 41.6823 288.01 41.401 287.172 41.0781C286.375 40.7812 285.807 40.5234 285.469 40.3047C285.135 40.0807 284.885 39.8281 284.719 39.5469C284.557 39.2656 284.477 38.9297 284.477 38.5391C284.477 37.8411 284.76 37.2917 285.328 36.8906C285.896 36.4844 286.674 36.2812 287.664 36.2812C288.586 36.2812 289.487 36.4688 290.367 36.8438L289.906 37.8984C289.047 37.5443 288.268 37.3672 287.57 37.3672C286.956 37.3672 286.492 37.4635 286.18 37.6562C285.867 37.849 285.711 38.1146 285.711 38.4531C285.711 38.6823 285.768 38.8776 285.883 39.0391C286.003 39.2005 286.193 39.3542 286.453 39.5C286.714 39.6458 287.214 39.8568 287.953 40.1328C288.969 40.5026 289.654 40.875 290.008 41.25C290.367 41.625 290.547 42.0964 290.547 42.6641ZM300.242 45.1562C299.003 45.1562 298.042 44.776 297.359 44.0156C296.682 43.25 296.344 42.1693 296.344 40.7734C296.344 39.3411 296.688 38.2344 297.375 37.4531C298.068 36.6719 299.052 36.2812 300.328 36.2812C300.74 36.2812 301.151 36.3255 301.562 36.4141C301.974 36.5026 302.297 36.6068 302.531 36.7266L302.133 37.8281C301.846 37.7135 301.534 37.6198 301.195 37.5469C300.857 37.4688 300.557 37.4297 300.297 37.4297C298.557 37.4297 297.688 38.5391 297.688 40.7578C297.688 41.8099 297.898 42.6172 298.32 43.1797C298.747 43.7422 299.378 44.0234 300.211 44.0234C300.924 44.0234 301.656 43.8698 302.406 43.5625V44.7109C301.833 45.0078 301.112 45.1562 300.242 45.1562ZM311.836 40.7109C311.836 42.1068 311.484 43.1979 310.781 43.9844C310.078 44.7656 309.107 45.1562 307.867 45.1562C307.102 45.1562 306.422 44.9766 305.828 44.6172C305.234 44.2578 304.776 43.7422 304.453 43.0703C304.13 42.3984 303.969 41.612 303.969 40.7109C303.969 39.3151 304.318 38.2292 305.016 37.4531C305.714 36.6719 306.682 36.2812 307.922 36.2812C309.12 36.2812 310.07 36.6797 310.773 37.4766C311.482 38.2734 311.836 39.3516 311.836 40.7109ZM305.312 40.7109C305.312 41.8047 305.531 42.638 305.969 43.2109C306.406 43.7839 307.049 44.0703 307.898 44.0703C308.747 44.0703 309.391 43.7865 309.828 43.2188C310.271 42.6458 310.492 41.8099 310.492 40.7109C310.492 39.6224 310.271 38.7969 309.828 38.2344C309.391 37.6667 308.742 37.3828 307.883 37.3828C307.034 37.3828 306.393 37.6615 305.961 38.2188C305.529 38.776 305.312 39.6068 305.312 40.7109ZM319.977 45V39.4609C319.977 38.763 319.818 38.2422 319.5 37.8984C319.182 37.5547 318.685 37.3828 318.008 37.3828C317.112 37.3828 316.456 37.625 316.039 38.1094C315.622 38.5938 315.414 39.3932 315.414 40.5078V45H314.117V36.4375H315.172L315.383 37.6094H315.445C315.711 37.1875 316.083 36.862 316.562 36.6328C317.042 36.3984 317.576 36.2812 318.164 36.2812C319.195 36.2812 319.971 36.5312 320.492 37.0312C321.013 37.526 321.273 38.3203 321.273 39.4141V45H319.977ZM329.773 43.8516H329.703C329.104 44.7214 328.208 45.1562 327.016 45.1562C325.896 45.1562 325.023 44.7734 324.398 44.0078C323.779 43.2422 323.469 42.1536 323.469 40.7422C323.469 39.3307 323.781 38.2344 324.406 37.4531C325.031 36.6719 325.901 36.2812 327.016 36.2812C328.177 36.2812 329.068 36.7031 329.688 37.5469H329.789L329.734 36.9297L329.703 36.3281V32.8438H331V45H329.945L329.773 43.8516ZM327.18 44.0703C328.065 44.0703 328.706 43.8307 329.102 43.3516C329.503 42.8672 329.703 42.0885 329.703 41.0156V40.7422C329.703 39.5286 329.5 38.6641 329.094 38.1484C328.693 37.6276 328.049 37.3672 327.164 37.3672C326.404 37.3672 325.82 37.6641 325.414 38.2578C325.013 38.8464 324.812 39.6797 324.812 40.7578C324.812 41.8516 325.013 42.6771 325.414 43.2344C325.815 43.7917 326.404 44.0703 327.18 44.0703ZM335.055 45H333.758V36.4375H335.055V45ZM333.648 34.1172C333.648 33.8203 333.721 33.6042 333.867 33.4688C334.013 33.3281 334.195 33.2578 334.414 33.2578C334.622 33.2578 334.802 33.3281 334.953 33.4688C335.104 33.6094 335.18 33.8255 335.18 34.1172C335.18 34.4089 335.104 34.6276 334.953 34.7734C334.802 34.9141 334.622 34.9844 334.414 34.9844C334.195 34.9844 334.013 34.9141 333.867 34.7734C333.721 34.6276 333.648 34.4089 333.648 34.1172ZM348.719 45V39.4297C348.719 38.7474 348.573 38.237 348.281 37.8984C347.99 37.5547 347.536 37.3828 346.922 37.3828C346.115 37.3828 345.518 37.6146 345.133 38.0781C344.747 38.5417 344.555 39.2552 344.555 40.2188V45H343.258V39.4297C343.258 38.7474 343.112 38.237 342.82 37.8984C342.529 37.5547 342.073 37.3828 341.453 37.3828C340.641 37.3828 340.044 37.6276 339.664 38.1172C339.289 38.6016 339.102 39.3984 339.102 40.5078V45H337.805V36.4375H338.859L339.07 37.6094H339.133C339.378 37.1927 339.721 36.8672 340.164 36.6328C340.612 36.3984 341.112 36.2812 341.664 36.2812C343.003 36.2812 343.878 36.7656 344.289 37.7344H344.352C344.607 37.2865 344.977 36.9323 345.461 36.6719C345.945 36.4115 346.497 36.2812 347.117 36.2812C348.086 36.2812 348.81 36.5312 349.289 37.0312C349.773 37.526 350.016 38.3203 350.016 39.4141V45H348.719ZM356.312 45.1562C355.047 45.1562 354.047 44.7708 353.312 44C352.583 43.2292 352.219 42.1589 352.219 40.7891C352.219 39.4089 352.557 38.3125 353.234 37.5C353.917 36.6875 354.831 36.2812 355.977 36.2812C357.049 36.2812 357.898 36.6354 358.523 37.3438C359.148 38.0469 359.461 38.9766 359.461 40.1328V40.9531H353.562C353.589 41.9583 353.841 42.7214 354.32 43.2422C354.805 43.763 355.484 44.0234 356.359 44.0234C357.281 44.0234 358.193 43.8307 359.094 43.4453V44.6016C358.635 44.7995 358.201 44.9401 357.789 45.0234C357.383 45.112 356.891 45.1562 356.312 45.1562ZM355.961 37.3672C355.273 37.3672 354.724 37.5911 354.312 38.0391C353.906 38.487 353.667 39.1068 353.594 39.8984H358.07C358.07 39.0807 357.888 38.4557 357.523 38.0234C357.159 37.5859 356.638 37.3672 355.961 37.3672ZM367.539 45V39.4609C367.539 38.763 367.38 38.2422 367.062 37.8984C366.745 37.5547 366.247 37.3828 365.57 37.3828C364.674 37.3828 364.018 37.625 363.602 38.1094C363.185 38.5938 362.977 39.3932 362.977 40.5078V45H361.68V36.4375H362.734L362.945 37.6094H363.008C363.273 37.1875 363.646 36.862 364.125 36.6328C364.604 36.3984 365.138 36.2812 365.727 36.2812C366.758 36.2812 367.534 36.5312 368.055 37.0312C368.576 37.526 368.836 38.3203 368.836 39.4141V45H367.539ZM374.273 44.0859C374.503 44.0859 374.724 44.0703 374.938 44.0391C375.151 44.0026 375.32 43.9661 375.445 43.9297V44.9219C375.305 44.9896 375.096 45.0443 374.82 45.0859C374.549 45.1328 374.305 45.1562 374.086 45.1562C372.43 45.1562 371.602 44.2839 371.602 42.5391V37.4453H370.375V36.8203L371.602 36.2812L372.148 34.4531H372.898V36.4375H375.383V37.4453H372.898V42.4844C372.898 43 373.021 43.3958 373.266 43.6719C373.51 43.9479 373.846 44.0859 374.273 44.0859ZM378.383 36.4375V41.9922C378.383 42.6901 378.542 43.2109 378.859 43.5547C379.177 43.8984 379.674 44.0703 380.352 44.0703C381.247 44.0703 381.901 43.8255 382.312 43.3359C382.729 42.8464 382.938 42.0469 382.938 40.9375V36.4375H384.234V45H383.164L382.977 43.8516H382.906C382.641 44.2734 382.271 44.5964 381.797 44.8203C381.328 45.0443 380.792 45.1562 380.188 45.1562C379.146 45.1562 378.365 44.9089 377.844 44.4141C377.328 43.9193 377.07 43.1276 377.07 42.0391V36.4375H378.383ZM397.906 45V39.4297C397.906 38.7474 397.76 38.237 397.469 37.8984C397.177 37.5547 396.724 37.3828 396.109 37.3828C395.302 37.3828 394.706 37.6146 394.32 38.0781C393.935 38.5417 393.742 39.2552 393.742 40.2188V45H392.445V39.4297C392.445 38.7474 392.299 38.237 392.008 37.8984C391.716 37.5547 391.26 37.3828 390.641 37.3828C389.828 37.3828 389.232 37.6276 388.852 38.1172C388.477 38.6016 388.289 39.3984 388.289 40.5078V45H386.992V36.4375H388.047L388.258 37.6094H388.32C388.565 37.1927 388.909 36.8672 389.352 36.6328C389.799 36.3984 390.299 36.2812 390.852 36.2812C392.19 36.2812 393.065 36.7656 393.477 37.7344H393.539C393.794 37.2865 394.164 36.9323 394.648 36.6719C395.133 36.4115 395.685 36.2812 396.305 36.2812C397.273 36.2812 397.997 36.5312 398.477 37.0312C398.961 37.526 399.203 38.3203 399.203 39.4141V45H397.906ZM403.242 43.1406L403.359 43.3203C403.224 43.8411 403.029 44.4453 402.773 45.1328C402.518 45.8255 402.253 46.4688 401.977 47.0625H401C401.141 46.5208 401.294 45.8516 401.461 45.0547C401.633 44.2578 401.753 43.6198 401.82 43.1406H403.242ZM415.82 45V39.4609C415.82 38.763 415.661 38.2422 415.344 37.8984C415.026 37.5547 414.529 37.3828 413.852 37.3828C412.951 37.3828 412.292 37.6276 411.875 38.1172C411.464 38.6068 411.258 39.4089 411.258 40.5234V45H409.961V32.8438H411.258V36.5234C411.258 36.9661 411.237 37.3333 411.195 37.625H411.273C411.529 37.2135 411.891 36.8906 412.359 36.6562C412.833 36.4167 413.372 36.2969 413.977 36.2969C415.023 36.2969 415.807 36.5469 416.328 37.0469C416.854 37.5417 417.117 38.3307 417.117 39.4141V45H415.82ZM423.406 45.1562C422.141 45.1562 421.141 44.7708 420.406 44C419.677 43.2292 419.312 42.1589 419.312 40.7891C419.312 39.4089 419.651 38.3125 420.328 37.5C421.01 36.6875 421.924 36.2812 423.07 36.2812C424.143 36.2812 424.992 36.6354 425.617 37.3438C426.242 38.0469 426.555 38.9766 426.555 40.1328V40.9531H420.656C420.682 41.9583 420.935 42.7214 421.414 43.2422C421.898 43.763 422.578 44.0234 423.453 44.0234C424.375 44.0234 425.286 43.8307 426.188 43.4453V44.6016C425.729 44.7995 425.294 44.9401 424.883 45.0234C424.477 45.112 423.984 45.1562 423.406 45.1562ZM423.055 37.3672C422.367 37.3672 421.818 37.5911 421.406 38.0391C421 38.487 420.76 39.1068 420.688 39.8984H425.164C425.164 39.0807 424.982 38.4557 424.617 38.0234C424.253 37.5859 423.732 37.3672 423.055 37.3672ZM434.633 45V39.4609C434.633 38.763 434.474 38.2422 434.156 37.8984C433.839 37.5547 433.341 37.3828 432.664 37.3828C431.768 37.3828 431.112 37.625 430.695 38.1094C430.279 38.5938 430.07 39.3932 430.07 40.5078V45H428.773V36.4375H429.828L430.039 37.6094H430.102C430.367 37.1875 430.74 36.862 431.219 36.6328C431.698 36.3984 432.232 36.2812 432.82 36.2812C433.852 36.2812 434.628 36.5312 435.148 37.0312C435.669 37.526 435.93 38.3203 435.93 39.4141V45H434.633ZM444.43 43.8516H444.359C443.76 44.7214 442.865 45.1562 441.672 45.1562C440.552 45.1562 439.68 44.7734 439.055 44.0078C438.435 43.2422 438.125 42.1536 438.125 40.7422C438.125 39.3307 438.438 38.2344 439.062 37.4531C439.688 36.6719 440.557 36.2812 441.672 36.2812C442.833 36.2812 443.724 36.7031 444.344 37.5469H444.445L444.391 36.9297L444.359 36.3281V32.8438H445.656V45H444.602L444.43 43.8516ZM441.836 44.0703C442.721 44.0703 443.362 43.8307 443.758 43.3516C444.159 42.8672 444.359 42.0885 444.359 41.0156V40.7422C444.359 39.5286 444.156 38.6641 443.75 38.1484C443.349 37.6276 442.706 37.3672 441.82 37.3672C441.06 37.3672 440.477 37.6641 440.07 38.2578C439.669 38.8464 439.469 39.6797 439.469 40.7578C439.469 41.8516 439.669 42.6771 440.07 43.2344C440.471 43.7917 441.06 44.0703 441.836 44.0703ZM452.32 36.2812C452.701 36.2812 453.042 36.3125 453.344 36.375L453.164 37.5781C452.81 37.5 452.497 37.4609 452.227 37.4609C451.534 37.4609 450.94 37.7422 450.445 38.3047C449.956 38.8672 449.711 39.5677 449.711 40.4062V45H448.414V36.4375H449.484L449.633 38.0234H449.695C450.013 37.4661 450.396 37.0365 450.844 36.7344C451.292 36.4323 451.784 36.2812 452.32 36.2812ZM458.562 45.1562C457.297 45.1562 456.297 44.7708 455.562 44C454.833 43.2292 454.469 42.1589 454.469 40.7891C454.469 39.4089 454.807 38.3125 455.484 37.5C456.167 36.6875 457.081 36.2812 458.227 36.2812C459.299 36.2812 460.148 36.6354 460.773 37.3438C461.398 38.0469 461.711 38.9766 461.711 40.1328V40.9531H455.812C455.839 41.9583 456.091 42.7214 456.57 43.2422C457.055 43.763 457.734 44.0234 458.609 44.0234C459.531 44.0234 460.443 43.8307 461.344 43.4453V44.6016C460.885 44.7995 460.451 44.9401 460.039 45.0234C459.633 45.112 459.141 45.1562 458.562 45.1562ZM458.211 37.3672C457.523 37.3672 456.974 37.5911 456.562 38.0391C456.156 38.487 455.917 39.1068 455.844 39.8984H460.32C460.32 39.0807 460.138 38.4557 459.773 38.0234C459.409 37.5859 458.888 37.3672 458.211 37.3672ZM467.836 36.2812C468.216 36.2812 468.557 36.3125 468.859 36.375L468.68 37.5781C468.326 37.5 468.013 37.4609 467.742 37.4609C467.049 37.4609 466.456 37.7422 465.961 38.3047C465.471 38.8672 465.227 39.5677 465.227 40.4062V45H463.93V36.4375H465L465.148 38.0234H465.211C465.529 37.4661 465.911 37.0365 466.359 36.7344C466.807 36.4323 467.299 36.2812 467.836 36.2812ZM471.758 45H470.461V36.4375H471.758V45ZM470.352 34.1172C470.352 33.8203 470.424 33.6042 470.57 33.4688C470.716 33.3281 470.898 33.2578 471.117 33.2578C471.326 33.2578 471.505 33.3281 471.656 33.4688C471.807 33.6094 471.883 33.8255 471.883 34.1172C471.883 34.4089 471.807 34.6276 471.656 34.7734C471.505 34.9141 471.326 34.9844 471.117 34.9844C470.898 34.9844 470.716 34.9141 470.57 34.7734C470.424 34.6276 470.352 34.4089 470.352 34.1172ZM477.273 44.0859C477.503 44.0859 477.724 44.0703 477.938 44.0391C478.151 44.0026 478.32 43.9661 478.445 43.9297V44.9219C478.305 44.9896 478.096 45.0443 477.82 45.0859C477.549 45.1328 477.305 45.1562 477.086 45.1562C475.43 45.1562 474.602 44.2839 474.602 42.5391V37.4453H473.375V36.8203L474.602 36.2812L475.148 34.4531H475.898V36.4375H478.383V37.4453H475.898V42.4844C475.898 43 476.021 43.3958 476.266 43.6719C476.51 43.9479 476.846 44.0859 477.273 44.0859ZM495.234 45V39.4297C495.234 38.7474 495.089 38.237 494.797 37.8984C494.505 37.5547 494.052 37.3828 493.438 37.3828C492.63 37.3828 492.034 37.6146 491.648 38.0781C491.263 38.5417 491.07 39.2552 491.07 40.2188V45H489.773V39.4297C489.773 38.7474 489.628 38.237 489.336 37.8984C489.044 37.5547 488.589 37.3828 487.969 37.3828C487.156 37.3828 486.56 37.6276 486.18 38.1172C485.805 38.6016 485.617 39.3984 485.617 40.5078V45H484.32V36.4375H485.375L485.586 37.6094H485.648C485.893 37.1927 486.237 36.8672 486.68 36.6328C487.128 36.3984 487.628 36.2812 488.18 36.2812C489.518 36.2812 490.393 36.7656 490.805 37.7344H490.867C491.122 37.2865 491.492 36.9323 491.977 36.6719C492.461 36.4115 493.013 36.2812 493.633 36.2812C494.602 36.2812 495.326 36.5312 495.805 37.0312C496.289 37.526 496.531 38.3203 496.531 39.4141V45H495.234ZM500.508 45H499.211V36.4375H500.508V45ZM499.102 34.1172C499.102 33.8203 499.174 33.6042 499.32 33.4688C499.466 33.3281 499.648 33.2578 499.867 33.2578C500.076 33.2578 500.255 33.3281 500.406 33.4688C500.557 33.6094 500.633 33.8255 500.633 34.1172C500.633 34.4089 500.557 34.6276 500.406 34.7734C500.255 34.9141 500.076 34.9844 499.867 34.9844C499.648 34.9844 499.466 34.9141 499.32 34.7734C499.174 34.6276 499.102 34.4089 499.102 34.1172ZM511.031 45.1562C509.766 45.1562 508.766 44.7708 508.031 44C507.302 43.2292 506.938 42.1589 506.938 40.7891C506.938 39.4089 507.276 38.3125 507.953 37.5C508.635 36.6875 509.549 36.2812 510.695 36.2812C511.768 36.2812 512.617 36.6354 513.242 37.3438C513.867 38.0469 514.18 38.9766 514.18 40.1328V40.9531H508.281C508.307 41.9583 508.56 42.7214 509.039 43.2422C509.523 43.763 510.203 44.0234 511.078 44.0234C512 44.0234 512.911 43.8307 513.812 43.4453V44.6016C513.354 44.7995 512.919 44.9401 512.508 45.0234C512.102 45.112 511.609 45.1562 511.031 45.1562ZM510.68 37.3672C509.992 37.3672 509.443 37.5911 509.031 38.0391C508.625 38.487 508.385 39.1068 508.312 39.8984H512.789C512.789 39.0807 512.607 38.4557 512.242 38.0234C511.878 37.5859 511.357 37.3672 510.68 37.3672ZM517.617 36.4375V41.9922C517.617 42.6901 517.776 43.2109 518.094 43.5547C518.411 43.8984 518.909 44.0703 519.586 44.0703C520.482 44.0703 521.135 43.8255 521.547 43.3359C521.964 42.8464 522.172 42.0469 522.172 40.9375V36.4375H523.469V45H522.398L522.211 43.8516H522.141C521.875 44.2734 521.505 44.5964 521.031 44.8203C520.562 45.0443 520.026 45.1562 519.422 45.1562C518.38 45.1562 517.599 44.9089 517.078 44.4141C516.562 43.9193 516.305 43.1276 516.305 42.0391V36.4375H517.617ZM527.586 43.1406L527.703 43.3203C527.568 43.8411 527.372 44.4453 527.117 45.1328C526.862 45.8255 526.596 46.4688 526.32 47.0625H525.344C525.484 46.5208 525.638 45.8516 525.805 45.0547C525.977 44.2578 526.096 43.6198 526.164 43.1406H527.586Z" fill="black"/>
</svg>
