<svg width="612" height="72" viewBox="0 0 612 72" fill="none" xmlns="http://www.w3.org/2000/svg">
<path d="M22.264 0.783998C25.592 0.783998 28.248 1.104 30.232 1.744C32.216 2.384 34.232 3.312 36.28 4.528C36.984 4.91199 37.592 5.23199 38.104 5.488C38.68 5.744 39.16 5.872 39.544 5.872C40.12 5.872 40.568 5.552 40.888 4.912C41.208 4.208 41.464 3.12 41.656 1.648H43.864C43.544 5.936 43.384 13.232 43.384 23.536H41.176C40.92 20.08 40.12 16.784 38.776 13.648C37.496 10.512 35.64 7.984 33.208 6.064C30.84 4.08 28.056 3.088 24.856 3.088C21.72 3.088 19.16 3.984 17.176 5.776C15.256 7.504 14.296 9.872 14.296 12.88C14.296 15.12 14.776 17.072 15.736 18.736C16.696 20.4 18.04 21.936 19.768 23.344C21.496 24.688 24.152 26.544 27.736 28.912L30.808 31.024C34.584 33.52 37.56 35.696 39.736 37.552C41.912 39.408 43.672 41.584 45.016 44.08C46.424 46.512 47.128 49.36 47.128 52.624C47.128 56.72 46.072 60.176 43.96 62.992C41.848 65.744 38.968 67.824 35.32 69.232C31.736 70.64 27.736 71.344 23.32 71.344C19.736 71.344 16.76 71.024 14.392 70.384C12.024 69.744 9.848 68.88 7.864 67.792C6.456 66.896 5.368 66.448 4.6 66.448C4.024 66.448 3.576 66.8 3.256 67.504C2.936 68.144 2.68 69.2 2.488 70.672H0.28C0.536 66.64 0.664 58 0.664 44.752H2.872C3.32 51.92 4.92 57.744 7.672 62.224C10.424 66.64 14.648 68.848 20.344 68.848C23.8 68.848 26.648 67.92 28.888 66.064C31.128 64.208 32.248 61.552 32.248 58.096C32.248 54.512 31.096 51.44 28.792 48.88C26.488 46.32 22.84 43.44 17.848 40.24C14.008 37.744 10.936 35.568 8.632 33.712C6.328 31.856 4.44 29.68 2.968 27.184C1.496 24.624 0.76 21.68 0.76 18.352C0.76 14.512 1.72 11.28 3.64 8.65599C5.624 5.96799 8.248 3.984 11.512 2.704C14.776 1.424 18.36 0.783998 22.264 0.783998ZM76.2145 46.384V59.824C76.2145 62.256 76.4065 64.016 76.7905 65.104C77.1745 66.192 77.8785 66.928 78.9025 67.312C79.9905 67.696 81.6865 67.952 83.9905 68.08V70C80.2785 69.808 74.8705 69.712 67.7665 69.712C61.8145 69.712 57.3345 69.808 54.3265 70V68.08C56.5025 67.952 58.0705 67.696 59.0305 67.312C59.9905 66.928 60.6305 66.192 60.9505 65.104C61.3345 64.016 61.5265 62.256 61.5265 59.824V21.808C61.5265 19.376 61.3345 17.616 60.9505 16.528C60.6305 15.44 59.9585 14.704 58.9345 14.32C57.9745 13.936 56.4385 13.68 54.3265 13.552V11.632C57.3345 11.824 61.6225 11.92 67.1905 11.92L78.8065 11.824C80.1505 11.76 81.6865 11.728 83.4145 11.728C91.7345 11.728 97.9105 13.136 101.943 15.952C106.039 18.704 108.087 22.64 108.087 27.76C108.087 32.944 105.943 37.36 101.655 41.008C97.4305 44.592 90.3265 46.384 80.3425 46.384H76.2145ZM82.1665 13.552C80.5025 13.552 79.2545 13.776 78.4225 14.224C77.5905 14.672 77.0145 15.472 76.6945 16.624C76.3745 17.776 76.2145 19.504 76.2145 21.808V44.464H79.3825C84.4385 44.464 87.9265 43.056 89.8465 40.24C91.7665 37.424 92.7265 33.616 92.7265 28.816C92.7265 23.632 91.8945 19.792 90.2305 17.296C88.6305 14.8 85.9425 13.552 82.1665 13.552ZM160.068 61.936C161.924 65.904 163.94 67.952 166.116 68.08V70C163.044 69.808 158.852 69.712 153.54 69.712C146.692 69.712 141.636 69.808 138.372 70V68.08C140.484 67.952 142.052 67.632 143.076 67.12C144.1 66.544 144.612 65.616 144.612 64.336C144.612 63.184 144.196 61.744 143.364 60.016L138.564 49.072H118.404L117.252 51.664C115.46 55.888 114.564 59.184 114.564 61.552C114.564 63.728 115.268 65.328 116.676 66.352C118.084 67.376 120.164 67.952 122.916 68.08V70C119.268 69.808 115.588 69.712 111.876 69.712C108.42 69.712 105.828 69.808 104.1 70V68.08C105.636 67.76 107.044 66.8 108.324 65.2C109.668 63.536 111.076 61.072 112.548 57.808L132.804 11.44C133.316 11.504 134.052 11.536 135.012 11.536C136.036 11.536 136.772 11.504 137.22 11.44L160.068 61.936ZM137.7 47.152L128.484 26.128L119.268 47.152H137.7ZM197.696 13.552C195.52 13.68 193.952 13.936 192.992 14.32C192.032 14.704 191.36 15.44 190.976 16.528C190.656 17.616 190.496 19.376 190.496 21.808V59.824C190.496 62.256 190.656 64.016 190.976 65.104C191.36 66.192 192.032 66.928 192.992 67.312C193.952 67.696 195.52 67.952 197.696 68.08V70C194.432 69.808 189.696 69.712 183.488 69.712C176.768 69.712 171.808 69.808 168.608 70V68.08C170.784 67.952 172.352 67.696 173.312 67.312C174.272 66.928 174.912 66.192 175.232 65.104C175.616 64.016 175.808 62.256 175.808 59.824V21.808C175.808 19.376 175.616 17.616 175.232 16.528C174.912 15.44 174.24 14.704 173.216 14.32C172.256 13.936 170.72 13.68 168.608 13.552V11.632C171.744 11.824 176.704 11.92 183.488 11.92C189.696 11.92 194.432 11.824 197.696 11.632V13.552ZM264.425 13.552C262.313 13.872 260.745 14.352 259.721 14.992C258.761 15.632 258.089 16.656 257.705 18.064C257.385 19.472 257.225 21.616 257.225 24.496V70.192L254.633 70.096L252.137 70.192L213.737 22.48V57.136C213.737 59.952 213.993 62.096 214.505 63.568C215.017 64.976 215.945 66 217.289 66.64C218.633 67.28 220.745 67.76 223.625 68.08V70C220.745 69.808 217.097 69.712 212.681 69.712C209.161 69.712 206.377 69.808 204.329 70V68.08C206.441 67.76 207.977 67.28 208.937 66.64C209.961 66 210.633 64.976 210.953 63.568C211.337 62.16 211.529 60.016 211.529 57.136V21.808C211.529 19.376 211.337 17.616 210.953 16.528C210.633 15.44 209.961 14.704 208.937 14.32C207.977 13.936 206.441 13.68 204.329 13.552V11.632C206.377 11.824 209.161 11.92 212.681 11.92C217.225 11.92 221.129 11.824 224.393 11.632L255.017 49.648V24.496C255.017 21.68 254.761 19.568 254.249 18.16C253.737 16.688 252.777 15.632 251.369 14.992C250.025 14.352 247.945 13.872 245.129 13.552V11.632C247.945 11.824 251.593 11.92 256.073 11.92C259.657 11.92 262.441 11.824 264.425 11.632V13.552ZM363.288 3.952C361.112 4.08 359.544 4.336 358.584 4.72C357.624 5.104 356.952 5.84 356.568 6.928C356.248 8.016 356.088 9.776 356.088 12.208V59.824C356.088 62.256 356.248 64.016 356.568 65.104C356.952 66.192 357.624 66.928 358.584 67.312C359.544 67.696 361.112 67.952 363.288 68.08V70C360.152 69.808 355.288 69.712 348.696 69.712C342.232 69.712 337.208 69.808 333.624 70V68.08C335.736 67.952 337.272 67.696 338.232 67.312C339.256 66.928 339.928 66.192 340.248 65.104C340.632 64.016 340.824 62.256 340.824 59.824V36.784H315.384V59.824C315.384 62.256 315.544 64.016 315.864 65.104C316.248 66.192 316.92 66.928 317.88 67.312C318.84 67.696 320.408 67.952 322.584 68.08V70C319.128 69.808 314.296 69.712 308.088 69.712C301.24 69.712 296.184 69.808 292.92 70V68.08C295.032 67.952 296.568 67.696 297.528 67.312C298.552 66.928 299.224 66.192 299.544 65.104C299.928 64.016 300.12 62.256 300.12 59.824V12.208C300.12 9.776 299.928 8.016 299.544 6.928C299.224 5.84 298.552 5.104 297.528 4.72C296.568 4.336 295.032 4.08 292.92 3.952V2.032C296.184 2.224 301.24 2.32 308.088 2.32C314.296 2.32 319.128 2.224 322.584 2.032V3.952C320.408 4.08 318.84 4.336 317.88 4.72C316.92 5.104 316.248 5.84 315.864 6.928C315.544 8.016 315.384 9.776 315.384 12.208V34.864H340.824V12.208C340.824 9.776 340.632 8.016 340.248 6.928C339.928 5.84 339.256 5.104 338.232 4.72C337.272 4.336 335.736 4.08 333.624 3.952V2.032C337.208 2.224 342.232 2.32 348.696 2.32C355.288 2.32 360.152 2.224 363.288 2.032V3.952ZM401.886 10.288C408.35 10.288 414.014 11.472 418.878 13.84C423.742 16.144 427.518 19.568 430.206 24.112C432.894 28.592 434.238 33.968 434.238 40.24C434.238 46.384 432.862 51.824 430.11 56.56C427.358 61.232 423.518 64.88 418.59 67.504C413.662 70.064 408.062 71.344 401.79 71.344C395.326 71.344 389.662 70.192 384.798 67.888C379.934 65.52 376.158 62.096 373.47 57.616C370.782 53.072 369.438 47.664 369.438 41.392C369.438 35.248 370.814 29.84 373.566 25.168C376.318 20.432 380.158 16.784 385.086 14.224C390.014 11.6 395.614 10.288 401.886 10.288ZM401.502 12.016C398.174 12.016 395.23 13.264 392.67 15.76C390.174 18.192 388.222 21.616 386.814 26.032C385.47 30.384 384.798 35.376 384.798 41.008C384.798 46.704 385.566 51.728 387.102 56.08C388.638 60.432 390.718 63.792 393.342 66.16C396.03 68.464 398.974 69.616 402.174 69.616C405.502 69.616 408.414 68.4 410.91 65.968C413.47 63.472 415.422 60.048 416.766 55.696C418.174 51.28 418.878 46.256 418.878 40.624C418.878 34.928 418.11 29.904 416.574 25.552C415.038 21.2 412.926 17.872 410.238 15.568C407.614 13.2 404.702 12.016 401.502 12.016ZM500.565 13.552C498.325 13.872 496.661 14.416 495.573 15.184C494.485 15.952 493.749 17.168 493.365 18.832C492.981 20.496 492.789 22.96 492.789 26.224V43.984C492.789 48.4 492.469 52.176 491.829 55.312C491.253 58.384 490.261 61.072 488.853 63.376C487.317 65.808 485.013 67.76 481.941 69.232C478.933 70.64 475.509 71.344 471.669 71.344C464.437 71.344 458.805 69.936 454.773 67.12C452.533 65.456 450.837 63.664 449.685 61.744C448.533 59.824 447.701 57.52 447.189 54.832C446.741 52.08 446.517 48.56 446.517 44.272V21.808C446.517 19.376 446.325 17.616 445.941 16.528C445.621 15.44 444.949 14.704 443.925 14.32C442.965 13.936 441.429 13.68 439.317 13.552V11.632C442.517 11.824 447.381 11.92 453.909 11.92C460.117 11.92 464.949 11.824 468.405 11.632V13.552C466.229 13.68 464.661 13.936 463.701 14.32C462.741 14.704 462.069 15.44 461.685 16.528C461.365 17.616 461.205 19.376 461.205 21.808V45.904C461.205 50.512 461.493 54.32 462.069 57.328C462.709 60.336 464.021 62.768 466.005 64.624C467.989 66.48 470.933 67.408 474.837 67.408C480.661 67.408 484.725 65.456 487.029 61.552C489.397 57.584 490.581 52.08 490.581 45.04V27.376C490.581 23.664 490.357 20.912 489.909 19.12C489.461 17.328 488.597 16.048 487.317 15.28C486.037 14.448 484.021 13.872 481.269 13.552V11.632C483.765 11.824 487.221 11.92 491.637 11.92C495.477 11.92 498.453 11.824 500.565 11.632V13.552ZM529.275 10.288C532.219 10.288 534.715 10.608 536.763 11.248C538.875 11.888 540.859 12.752 542.715 13.84C543.419 14.224 544.027 14.544 544.539 14.8C545.115 15.056 545.595 15.184 545.979 15.184C546.555 15.184 547.003 14.864 547.323 14.224C547.643 13.52 547.899 12.432 548.091 10.96H550.299C549.979 14.8 549.819 21.456 549.819 30.928H547.611C546.907 25.168 545.051 20.656 542.043 17.392C539.035 14.064 535.099 12.4 530.235 12.4C527.035 12.4 524.443 13.104 522.459 14.512C520.539 15.92 519.579 17.744 519.579 19.984C519.579 21.712 520.091 23.312 521.115 24.784C522.203 26.192 523.611 27.504 525.339 28.72C527.067 29.936 529.595 31.536 532.923 33.52L535.035 34.768C538.875 36.944 542.011 38.928 544.443 40.72C546.875 42.448 548.891 44.528 550.491 46.96C552.091 49.328 552.891 52.016 552.891 55.024C552.891 60.272 550.715 64.304 546.363 67.12C542.011 69.936 536.283 71.344 529.179 71.344C526.107 71.344 523.451 70.992 521.211 70.288C518.971 69.648 516.699 68.752 514.395 67.6C512.795 66.832 511.675 66.448 511.035 66.448C510.459 66.448 510.011 66.8 509.691 67.504C509.371 68.144 509.115 69.2 508.923 70.672H506.715C506.971 67.088 507.099 59.28 507.099 47.248H509.307C509.755 54.032 511.579 59.376 514.779 63.28C518.043 67.184 522.619 69.136 528.507 69.136C531.387 69.136 533.883 68.4 535.995 66.928C538.107 65.456 539.163 63.28 539.163 60.4C539.163 57.84 538.171 55.632 536.187 53.776C534.203 51.92 530.811 49.584 526.011 46.768C519.931 43.312 515.259 40.016 511.995 36.88C508.795 33.744 507.195 30.064 507.195 25.84C507.195 20.848 509.243 17.008 513.339 14.32C517.499 11.632 522.811 10.288 529.275 10.288ZM610.407 57.52C610.407 61.168 610.631 65.328 611.079 70C606.919 69.808 599.911 69.712 590.055 69.712C576.871 69.712 566.951 69.808 560.295 70V68.08C562.471 67.952 564.039 67.696 564.999 67.312C565.959 66.928 566.599 66.192 566.919 65.104C567.303 64.016 567.495 62.256 567.495 59.824V21.808C567.495 19.376 567.303 17.616 566.919 16.528C566.599 15.44 565.927 14.704 564.903 14.32C563.943 13.936 562.407 13.68 560.295 13.552V11.632C566.951 11.824 576.871 11.92 590.055 11.92C599.015 11.92 605.383 11.824 609.159 11.632C608.711 15.92 608.487 19.76 608.487 23.152C608.487 25.648 608.583 27.632 608.775 29.104H606.567C605.607 23.6 603.943 19.696 601.575 17.392C599.207 15.024 595.943 13.84 591.783 13.84H588.231C586.567 13.84 585.319 14 584.487 14.32C583.655 14.576 583.047 15.152 582.663 16.048C582.343 16.88 582.183 18.224 582.183 20.08V39.664H586.695C589.639 39.664 591.847 38.64 593.319 36.592C594.855 34.48 595.879 32.048 596.391 29.296H598.599C598.407 31.472 598.311 33.968 598.311 36.784V40.624C598.311 43.504 598.503 47.28 598.887 51.952H596.679C596.231 48.944 595.207 46.48 593.607 44.56C592.071 42.576 589.767 41.584 586.695 41.584H582.183V61.552C582.183 63.408 582.343 64.784 582.663 65.68C583.047 66.512 583.655 67.088 584.487 67.408C585.319 67.664 586.567 67.792 588.231 67.792H592.359C596.903 67.792 600.455 66.48 603.015 63.856C605.639 61.232 607.463 56.816 608.487 50.608H610.695C610.503 52.4 610.407 54.704 610.407 57.52Z" fill="white"/>
</svg>
