<svg width="1" height="1" viewBox="0 0 1 1" fill="none" xmlns="http://www.w3.org/2000/svg">
<g clip-path="url(#clip0_114_257)">
<path d="M0.500125 0H0.499875C0.224188 0 0 0.22425 0 0.5C0 0.609375 0.03525 0.71075 0.0951875 0.793063L0.032875 0.978813L0.225063 0.917375C0.304125 0.96975 0.398438 1 0.500125 1C0.775813 1 1 0.775687 1 0.5C1 0.224313 0.775813 0 0.500125 0ZM0.791062 0.706062C0.779 0.740125 0.731125 0.768375 0.692937 0.776625C0.666812 0.782187 0.632688 0.786625 0.517812 0.739C0.370875 0.678125 0.27625 0.528812 0.268875 0.519125C0.261813 0.509438 0.2095 0.440063 0.2095 0.368313C0.2095 0.296562 0.245938 0.261625 0.260625 0.246625C0.272687 0.234313 0.292625 0.228687 0.31175 0.228687C0.317937 0.228687 0.3235 0.229 0.3285 0.22925C0.343188 0.229875 0.350562 0.23075 0.36025 0.253938C0.372312 0.283 0.401687 0.35475 0.405187 0.362125C0.40875 0.3695 0.412313 0.3795 0.407313 0.389188C0.402625 0.399188 0.3985 0.403625 0.391125 0.412125C0.38375 0.420625 0.37675 0.427125 0.369375 0.43625C0.362625 0.444187 0.355 0.452688 0.3635 0.467375C0.372 0.48175 0.401375 0.529687 0.444625 0.568187C0.500437 0.617875 0.545687 0.63375 0.561875 0.6405C0.573937 0.6455 0.588313 0.644313 0.597125 0.634938C0.608312 0.622875 0.622125 0.602875 0.636187 0.583188C0.646187 0.569063 0.658813 0.567312 0.672063 0.572312C0.685562 0.577 0.757 0.612312 0.771688 0.619625C0.786375 0.627 0.796062 0.6305 0.799625 0.636688C0.803125 0.642875 0.803125 0.671937 0.791062 0.706062Z" fill="#808080"/>
</g>
<defs>
<clipPath id="clip0_114_257">
<rect width="1" height="1" fill="white"/>
</clipPath>
</defs>
</svg>
